<svg version="1.1" viewBox="0.0 0.0 911.0 362.0" fill="none" stroke="none" stroke-linecap="square" stroke-miterlimit="10" width="911" height="362" xmlns:xlink="http://www.w3.org/1999/xlink" xmlns="http://www.w3.org/2000/svg"><path fill="#ffffff" fill-opacity="0.0" d="M0 0L911.0 0L911.0 362.0L0 362.0L0 0Z" fill-rule="nonzero"/><path stroke="#333333" stroke-width="1.0" stroke-linecap="butt" d="M83.5 323.5L892.5 323.5" fill-rule="nonzero"/><path stroke="#cccccc" stroke-width="1.0" stroke-linecap="butt" d="M83.5 258.5L892.5 258.5" fill-rule="nonzero"/><path stroke="#cccccc" stroke-width="1.0" stroke-linecap="butt" d="M83.5 192.5L892.5 192.5" fill-rule="nonzero"/><path stroke="#cccccc" stroke-width="1.0" stroke-linecap="butt" d="M83.5 126.5L892.5 126.5" fill-rule="nonzero"/><path stroke="#cccccc" stroke-width="1.0" stroke-linecap="butt" d="M83.5 61.5L892.5 61.5" fill-rule="nonzero"/><path stroke="#000000" stroke-width="1.0" stroke-linecap="butt" stroke-opacity="0.0" d="M83.5 307.5L892.5 307.5" fill-rule="nonzero"/><path stroke="#000000" stroke-width="1.0" stroke-linecap="butt" stroke-opacity="0.0" d="M83.5 291.5L892.5 291.5" fill-rule="nonzero"/><path stroke="#000000" stroke-width="1.0" stroke-linecap="butt" stroke-opacity="0.0" d="M83.5 274.5L892.5 274.5" fill-rule="nonzero"/><path stroke="#000000" stroke-width="1.0" stroke-linecap="butt" stroke-opacity="0.0" d="M83.5 241.5L892.5 241.5" fill-rule="nonzero"/><path stroke="#000000" stroke-width="1.0" stroke-linecap="butt" stroke-opacity="0.0" d="M83.5 225.5L892.5 225.5" fill-rule="nonzero"/><path stroke="#000000" stroke-width="1.0" stroke-linecap="butt" stroke-opacity="0.0" d="M83.5 208.5L892.5 208.5" fill-rule="nonzero"/><path stroke="#000000" stroke-width="1.0" stroke-linecap="butt" stroke-opacity="0.0" d="M83.5 176.5L892.5 176.5" fill-rule="nonzero"/><path stroke="#000000" stroke-width="1.0" stroke-linecap="butt" stroke-opacity="0.0" d="M83.5 159.5L892.5 159.5" fill-rule="nonzero"/><path stroke="#000000" stroke-width="1.0" stroke-linecap="butt" stroke-opacity="0.0" d="M83.5 143.5L892.5 143.5" fill-rule="nonzero"/><path stroke="#000000" stroke-width="1.0" stroke-linecap="butt" stroke-opacity="0.0" d="M83.5 110.5L892.5 110.5" fill-rule="nonzero"/><path stroke="#000000" stroke-width="1.0" stroke-linecap="butt" stroke-opacity="0.0" d="M83.5 94.5L892.5 94.5" fill-rule="nonzero"/><path stroke="#000000" stroke-width="1.0" stroke-linecap="butt" stroke-opacity="0.0" d="M83.5 77.5L892.5 77.5" fill-rule="nonzero"/><path stroke="#000000" stroke-width="1.0" stroke-linecap="butt" d="M83.5 323.5L83.5 61.5" fill-rule="nonzero"/><clipPath id="id_0"><path d="M83.1 61.166668L892.9 61.166668L892.9 323.9L83.1 323.9L83.1 61.166668Z" clip-rule="nonzero"/></clipPath><path stroke="#4285f4" stroke-width="2.0" stroke-linecap="butt" clip-path="url(#id_0)" d="M148.56288 214.20883L148.56288 315.11737" fill-rule="nonzero"/><path stroke="#4285f4" stroke-width="2.0" stroke-linecap="butt" clip-path="url(#id_0)" d="M148.56288 323.9L148.56288 315.11737" fill-rule="nonzero"/><path fill="#4285f4" clip-path="url(#id_0)" d="M116.04371 314.11737L181.08203 314.11737L181.08203 316.11737L116.04371 316.11737L116.04371 314.11737Z" fill-rule="nonzero"/><path stroke="#4285f4" stroke-width="2.0" stroke-linecap="butt" clip-path="url(#id_0)" d="M245.5449 206.98367L245.5449 318.95657" fill-rule="nonzero"/><path stroke="#4285f4" stroke-width="2.0" stroke-linecap="butt" clip-path="url(#id_0)" d="M245.5449 322.91476L245.5449 318.95657" fill-rule="nonzero"/><path fill="#4285f4" clip-path="url(#id_0)" d="M213.02574 317.95657L278.06406 317.95657L278.06406 319.95657L213.02574 319.95657L213.02574 317.95657Z" fill-rule="nonzero"/><path stroke="#4285f4" stroke-width="2.0" stroke-linecap="butt" clip-path="url(#id_0)" d="M342.52695 316.67484L342.52695 320.51468" fill-rule="nonzero"/><path stroke="#4285f4" stroke-width="2.0" stroke-linecap="butt" clip-path="url(#id_0)" d="M342.52695 323.5716L342.52695 320.51468" fill-rule="nonzero"/><path fill="#4285f4" clip-path="url(#id_0)" d="M310.00778 319.51468L375.0461 319.51468L375.0461 321.51468L310.00778 321.51468L310.00778 319.51468Z" fill-rule="nonzero"/><path stroke="#4285f4" stroke-width="2.0" stroke-linecap="butt" clip-path="url(#id_0)" d="M439.50897 238.51167L439.50897 315.15543" fill-rule="nonzero"/><path stroke="#4285f4" stroke-width="2.0" stroke-linecap="butt" clip-path="url(#id_0)" d="M439.50897 323.9L439.50897 315.15543" fill-rule="nonzero"/><path fill="#4285f4" clip-path="url(#id_0)" d="M406.9898 314.15543L472.02814 314.15543L472.02814 316.15543L406.9898 316.15543L406.9898 314.15543Z" fill-rule="nonzero"/><path stroke="#4285f4" stroke-width="2.0" stroke-linecap="butt" clip-path="url(#id_0)" d="M536.491 213.88042L536.491 265.5286" fill-rule="nonzero"/><path stroke="#4285f4" stroke-width="2.0" stroke-linecap="butt" clip-path="url(#id_0)" d="M536.491 303.20975L536.491 265.5286" fill-rule="nonzero"/><path fill="#4285f4" clip-path="url(#id_0)" d="M503.97186 264.5286L569.0102 264.5286L569.0102 266.5286L503.97186 266.5286L503.97186 264.5286Z" fill-rule="nonzero"/><path stroke="#4285f4" stroke-width="2.0" stroke-linecap="butt" clip-path="url(#id_0)" d="M633.4731 301.8961L633.4731 310.28625" fill-rule="nonzero"/><path stroke="#4285f4" stroke-width="2.0" stroke-linecap="butt" clip-path="url(#id_0)" d="M633.4731 317.9885L633.4731 310.28625" fill-rule="nonzero"/><path fill="#4285f4" clip-path="url(#id_0)" d="M600.9539 309.28625L665.99225 309.28625L665.99225 311.28625L600.9539 311.28625L600.9539 309.28625Z" fill-rule="nonzero"/><path stroke="#4285f4" stroke-width="2.0" stroke-linecap="butt" clip-path="url(#id_0)" d="M730.4551 271.68176L730.4551 291.65262" fill-rule="nonzero"/><path stroke="#4285f4" stroke-width="2.0" stroke-linecap="butt" clip-path="url(#id_0)" d="M730.4551 319.30215L730.4551 291.65262" fill-rule="nonzero"/><path fill="#4285f4" clip-path="url(#id_0)" d="M697.9359 290.65262L762.97424 290.65262L762.97424 292.65262L697.9359 292.65262L697.9359 290.65262Z" fill-rule="nonzero"/><path stroke="#4285f4" stroke-width="2.0" stroke-linecap="butt" clip-path="url(#id_0)" d="M827.43713 126.19317L827.43713 298.79755" fill-rule="nonzero"/><path stroke="#4285f4" stroke-width="2.0" stroke-linecap="butt" clip-path="url(#id_0)" d="M827.43713 323.9L827.43713 298.79755" fill-rule="nonzero"/><path fill="#4285f4" clip-path="url(#id_0)" d="M794.91797 297.79755L859.9563 297.79755L859.9563 299.79755L794.91797 299.79755L794.91797 297.79755Z" fill-rule="nonzero"/><path stroke="#000000" stroke-width="1.0" stroke-linecap="butt" d="M80.5 307.5L86.5 307.5" fill-rule="nonzero"/><path stroke="#000000" stroke-width="1.0" stroke-linecap="butt" d="M80.5 291.5L86.5 291.5" fill-rule="nonzero"/><path stroke="#000000" stroke-width="1.0" stroke-linecap="butt" d="M80.5 274.5L86.5 274.5" fill-rule="nonzero"/><path stroke="#000000" stroke-width="1.0" stroke-linecap="butt" d="M80.5 241.5L86.5 241.5" fill-rule="nonzero"/><path stroke="#000000" stroke-width="1.0" stroke-linecap="butt" d="M80.5 225.5L86.5 225.5" fill-rule="nonzero"/><path stroke="#000000" stroke-width="1.0" stroke-linecap="butt" d="M80.5 208.5L86.5 208.5" fill-rule="nonzero"/><path stroke="#000000" stroke-width="1.0" stroke-linecap="butt" d="M80.5 176.5L86.5 176.5" fill-rule="nonzero"/><path stroke="#000000" stroke-width="1.0" stroke-linecap="butt" d="M80.5 159.5L86.5 159.5" fill-rule="nonzero"/><path stroke="#000000" stroke-width="1.0" stroke-linecap="butt" d="M80.5 143.5L86.5 143.5" fill-rule="nonzero"/><path stroke="#000000" stroke-width="1.0" stroke-linecap="butt" d="M80.5 110.5L86.5 110.5" fill-rule="nonzero"/><path stroke="#000000" stroke-width="1.0" stroke-linecap="butt" d="M80.5 94.5L86.5 94.5" fill-rule="nonzero"/><path stroke="#000000" stroke-width="1.0" stroke-linecap="butt" d="M80.5 77.5L86.5 77.5" fill-rule="nonzero"/><path stroke="#000000" stroke-width="1.0" stroke-linecap="butt" d="M77.5 323.5L89.5 323.5" fill-rule="nonzero"/><path stroke="#000000" stroke-width="1.0" stroke-linecap="butt" d="M77.5 258.5L89.5 258.5" fill-rule="nonzero"/><path stroke="#000000" stroke-width="1.0" stroke-linecap="butt" d="M77.5 192.5L89.5 192.5" fill-rule="nonzero"/><path stroke="#000000" stroke-width="1.0" stroke-linecap="butt" d="M77.5 126.5L89.5 126.5" fill-rule="nonzero"/><path stroke="#000000" stroke-width="1.0" stroke-linecap="butt" d="M77.5 61.5L89.5 61.5" fill-rule="nonzero"/><path fill="#000000" d="M22.881245 205.20522L22.881245 203.56459L27.849995 201.93959L22.881245 200.12709L22.881245 198.59584L29.099995 198.59584L29.099995 199.65834L24.08437 199.65834L29.099995 201.50209L29.099995 202.43959L23.849995 204.17397L29.099995 204.17397L29.099995 205.20522L22.881245 205.20522ZM26.818745 193.17397L26.95937 192.14272Q28.02187 192.31459 28.631245 193.01772Q29.24062 193.72084 29.24062 194.73647Q29.24062 196.01772 28.412495 196.79897Q27.568745 197.56459 26.006245 197.56459Q25.006245 197.56459 24.256245 197.23647Q23.49062 196.89272 23.11562 196.22084Q22.74062 195.53334 22.74062 194.72084Q22.74062 193.72084 23.256245 193.08022Q23.756245 192.42397 24.70937 192.23647L24.86562 193.26772Q24.24062 193.40834 23.92812 193.78334Q23.599995 194.15834 23.599995 194.68959Q23.599995 195.48647 24.17812 195.98647Q24.74062 196.48647 25.974995 196.48647Q27.24062 196.48647 27.80312 196.00209Q28.36562 195.51772 28.36562 194.75209Q28.36562 194.12709 27.99062 193.72084Q27.61562 193.29897 26.818745 193.17397Z" fill-rule="nonzero"/><path fill="#000000" d="M64.6 323.66562Q64.6 322.13437 64.9125 321.2125Q65.225 320.275 65.83437 319.775Q66.45937 319.275 67.39687 319.275Q68.08437 319.275 68.6 319.55624Q69.13125 319.8375 69.475 320.36874Q69.81875 320.88437 70.00625 321.63437Q70.19375 322.38437 70.19375 323.66562Q70.19375 325.18124 69.88125 326.10312Q69.58437 327.025 68.95937 327.54062Q68.35 328.04062 67.39687 328.04062Q66.1625 328.04062 65.44375 327.15Q64.6 326.0875 64.6 323.66562ZM65.67812 323.66562Q65.67812 325.775 66.17812 326.47812Q66.67812 327.18124 67.39687 327.18124Q68.13125 327.18124 68.61562 326.47812Q69.11562 325.775 69.11562 323.66562Q69.11562 321.54062 68.61562 320.85312Q68.13125 320.15 67.38125 320.15Q66.6625 320.15 66.225 320.75937Q65.67812 321.54062 65.67812 323.66562Z" fill-rule="nonzero"/><path fill="#000000" d="M56.146873 261.20105L56.146873 262.21667L50.459373 262.21667Q50.459373 261.84167 50.584373 261.4823Q50.803123 260.90417 51.271873 260.34167Q51.75625 259.77917 52.6625 259.0448Q54.06875 257.88855 54.553123 257.21667Q55.053123 256.5448 55.053123 255.95105Q55.053123 255.32605 54.6 254.90417Q54.146873 254.46667 53.428123 254.46667Q52.6625 254.46667 52.209373 254.9198Q51.75625 255.37292 51.740623 256.18542L50.6625 256.07605Q50.771873 254.8573 51.490623 254.2323Q52.225 253.59167 53.459373 253.59167Q54.69375 253.59167 55.4125 254.27917Q56.13125 254.96667 56.13125 255.9823Q56.13125 256.49792 55.9125 256.99792Q55.709373 257.4823 55.209373 258.0448Q54.725 258.59167 53.6 259.5448Q52.646873 260.34167 52.365623 260.63855Q52.1 260.9198 51.928123 261.20105L56.146873 261.20105ZM57.6 257.9823Q57.6 256.45105 57.9125 255.52917Q58.225 254.59167 58.834373 254.09167Q59.459373 253.59167 60.396873 253.59167Q61.084373 253.59167 61.6 253.87292Q62.13125 254.15417 62.475 254.68542Q62.81875 255.20105 63.00625 255.95105Q63.19375 256.70105 63.19375 257.9823Q63.19375 259.49792 62.88125 260.4198Q62.584373 261.34167 61.959373 261.8573Q61.35 262.3573 60.396873 262.3573Q59.1625 262.3573 58.44375 261.46667Q57.6 260.40417 57.6 257.9823ZM58.678123 257.9823Q58.678123 260.09167 59.178123 260.7948Q59.678123 261.49792 60.396873 261.49792Q61.13125 261.49792 61.615623 260.7948Q62.115623 260.09167 62.115623 257.9823Q62.115623 255.8573 61.615623 255.1698Q61.13125 254.46667 60.38125 254.46667Q59.6625 254.46667 59.225 255.07605Q58.678123 255.8573 58.678123 257.9823ZM64.6 257.9823Q64.6 256.45105 64.9125 255.52917Q65.225 254.59167 65.83437 254.09167Q66.45937 253.59167 67.39687 253.59167Q68.08437 253.59167 68.6 253.87292Q69.13125 254.15417 69.475 254.68542Q69.81875 255.20105 70.00625 255.95105Q70.19375 256.70105 70.19375 257.9823Q70.19375 259.49792 69.88125 260.4198Q69.58437 261.34167 68.95937 261.8573Q68.35 262.3573 67.39687 262.3573Q66.1625 262.3573 65.44375 261.46667Q64.6 260.40417 64.6 257.9823ZM65.67812 257.9823Q65.67812 260.09167 66.17812 260.7948Q66.67812 261.49792 67.39687 261.49792Q68.13125 261.49792 68.61562 260.7948Q69.11562 260.09167 69.11562 257.9823Q69.11562 255.8573 68.61562 255.1698Q68.13125 254.46667 67.38125 254.46667Q66.6625 254.46667 66.225 255.07605Q65.67812 255.8573 65.67812 257.9823Z" fill-rule="nonzero"/><path fill="#000000" d="M53.975 196.53334L53.975 194.47084L50.25625 194.47084L50.25625 193.50209L54.178123 187.93959L55.0375 187.93959L55.0375 193.50209L56.19375 193.50209L56.19375 194.47084L55.0375 194.47084L55.0375 196.53334L53.975 196.53334ZM53.975 193.50209L53.975 189.64272L51.2875 193.50209L53.975 193.50209ZM57.6 192.29897Q57.6 190.76772 57.9125 189.84584Q58.225 188.90834 58.834373 188.40834Q59.459373 187.90834 60.396873 187.90834Q61.084373 187.90834 61.6 188.18959Q62.13125 188.47084 62.475 189.00209Q62.81875 189.51772 63.00625 190.26772Q63.19375 191.01772 63.19375 192.29897Q63.19375 193.81459 62.88125 194.73647Q62.584373 195.65834 61.959373 196.17397Q61.35 196.67397 60.396873 196.67397Q59.1625 196.67397 58.44375 195.78334Q57.6 194.72084 57.6 192.29897ZM58.678123 192.29897Q58.678123 194.40834 59.178123 195.11147Q59.678123 195.81459 60.396873 195.81459Q61.13125 195.81459 61.615623 195.11147Q62.115623 194.40834 62.115623 192.29897Q62.115623 190.17397 61.615623 189.48647Q61.13125 188.78334 60.38125 188.78334Q59.6625 188.78334 59.225 189.39272Q58.678123 190.17397 58.678123 192.29897ZM64.6 192.29897Q64.6 190.76772 64.9125 189.84584Q65.225 188.90834 65.83437 188.40834Q66.45937 187.90834 67.39687 187.90834Q68.08437 187.90834 68.6 188.18959Q69.13125 188.47084 69.475 189.00209Q69.81875 189.51772 70.00625 190.26772Q70.19375 191.01772 70.19375 192.29897Q70.19375 193.81459 69.88125 194.73647Q69.58437 195.65834 68.95937 196.17397Q68.35 196.67397 67.39687 196.67397Q66.1625 196.67397 65.44375 195.78334Q64.6 194.72084 64.6 192.29897ZM65.67812 192.29897Q65.67812 194.40834 66.17812 195.11147Q66.67812 195.81459 67.39687 195.81459Q68.13125 195.81459 68.61562 195.11147Q69.11562 194.40834 69.11562 192.29897Q69.11562 190.17397 68.61562 189.48647Q68.13125 188.78334 67.38125 188.78334Q66.6625 188.78334 66.225 189.39272Q65.67812 190.17397 65.67812 192.29897Z" fill-rule="nonzero"/><path fill="#000000" d="M56.06875 124.36563L55.021873 124.443756Q54.88125 123.818756 54.63125 123.537506Q54.19375 123.08438 53.56875 123.08438Q53.06875 123.08438 52.678123 123.36563Q52.19375 123.74063 51.896873 124.443756Q51.615623 125.131256 51.6 126.412506Q51.975 125.83438 52.521873 125.55313Q53.084373 125.27188 53.69375 125.27188Q54.740623 125.27188 55.475 126.05313Q56.225 126.83438 56.225 128.05313Q56.225 128.86563 55.865623 129.56876Q55.521873 130.25626 54.9125 130.63126Q54.303123 130.99063 53.5375 130.99063Q52.209373 130.99063 51.38125 130.02188Q50.553123 129.05313 50.553123 126.83438Q50.553123 124.33438 51.475 123.20938Q52.271873 122.225006 53.63125 122.225006Q54.646873 122.225006 55.2875 122.80313Q55.94375 123.36563 56.06875 124.36563ZM51.771873 128.06876Q51.771873 128.61563 51.990623 129.11563Q52.225 129.6 52.63125 129.86563Q53.053123 130.13126 53.521873 130.13126Q54.178123 130.13126 54.6625 129.6Q55.146873 129.05313 55.146873 128.13126Q55.146873 127.24063 54.6625 126.725006Q54.19375 126.20938 53.475 126.20938Q52.75625 126.20938 52.25625 126.725006Q51.771873 127.24063 51.771873 128.06876ZM57.6 126.61563Q57.6 125.08438 57.9125 124.162506Q58.225 123.225006 58.834373 122.725006Q59.459373 122.225006 60.396873 122.225006Q61.084373 122.225006 61.6 122.506256Q62.13125 122.787506 62.475 123.318756Q62.81875 123.83438 63.00625 124.58438Q63.19375 125.33438 63.19375 126.61563Q63.19375 128.13126 62.88125 129.05313Q62.584373 129.975 61.959373 130.49063Q61.35 130.99063 60.396873 130.99063Q59.1625 130.99063 58.44375 130.1Q57.6 129.0375 57.6 126.61563ZM58.678123 126.61563Q58.678123 128.725 59.178123 129.42813Q59.678123 130.13126 60.396873 130.13126Q61.13125 130.13126 61.615623 129.42813Q62.115623 128.725 62.115623 126.61563Q62.115623 124.49063 61.615623 123.80313Q61.13125 123.100006 60.38125 123.100006Q59.6625 123.100006 59.225 123.70938Q58.678123 124.49063 58.678123 126.61563ZM64.6 126.61563Q64.6 125.08438 64.9125 124.162506Q65.225 123.225006 65.83437 122.725006Q66.45937 122.225006 67.39687 122.225006Q68.08437 122.225006 68.6 122.506256Q69.13125 122.787506 69.475 123.318756Q69.81875 123.83438 70.00625 124.58438Q70.19375 125.33438 70.19375 126.61563Q70.19375 128.13126 69.88125 129.05313Q69.58437 129.975 68.95937 130.49063Q68.35 130.99063 67.39687 130.99063Q66.1625 130.99063 65.44375 130.1Q64.6 129.0375 64.6 126.61563ZM65.67812 126.61563Q65.67812 128.725 66.17812 129.42813Q66.67812 130.13126 67.39687 130.13126Q68.13125 130.13126 68.61562 129.42813Q69.11562 128.725 69.11562 126.61563Q69.11562 124.49063 68.61562 123.80313Q68.13125 123.100006 67.38125 123.100006Q66.6625 123.100006 66.225 123.70938Q65.67812 124.49063 65.67812 126.61563Z" fill-rule="nonzero"/><path fill="#000000" d="M52.225 60.510414Q51.56875 60.260414 51.240623 59.822914Q50.928123 59.36979 50.928123 58.760414Q50.928123 57.822914 51.6 57.18229Q52.2875 56.541664 53.396873 56.541664Q54.521873 56.541664 55.209373 57.197914Q55.896873 57.854164 55.896873 58.791664Q55.896873 59.385414 55.584373 59.822914Q55.271873 60.260414 54.63125 60.510414Q55.428123 60.760414 55.834373 61.33854Q56.240623 61.916664 56.240623 62.71354Q56.240623 63.80729 55.459373 64.55729Q54.69375 65.30729 53.4125 65.30729Q52.146873 65.30729 51.365623 64.55729Q50.584373 63.80729 50.584373 62.68229Q50.584373 61.83854 51.00625 61.27604Q51.44375 60.71354 52.225 60.510414ZM52.00625 58.71354Q52.00625 59.322914 52.396873 59.71354Q52.803123 60.104164 53.428123 60.104164Q54.0375 60.104164 54.428123 59.729164Q54.81875 59.33854 54.81875 58.77604Q54.81875 58.197914 54.4125 57.80729Q54.00625 57.40104 53.4125 57.40104Q52.803123 57.40104 52.396873 57.791664Q52.00625 58.18229 52.00625 58.71354ZM51.678123 62.68229Q51.678123 63.135414 51.88125 63.55729Q52.1 63.979164 52.521873 64.21354Q52.94375 64.447914 53.428123 64.447914Q54.178123 64.447914 54.6625 63.96354Q55.1625 63.479164 55.1625 62.729164Q55.1625 61.96354 54.6625 61.46354Q54.1625 60.96354 53.396873 60.96354Q52.646873 60.96354 52.1625 61.46354Q51.678123 61.947914 51.678123 62.68229ZM57.6 60.93229Q57.6 59.40104 57.9125 58.479164Q58.225 57.541664 58.834373 57.041664Q59.459373 56.541664 60.396873 56.541664Q61.084373 56.541664 61.6 56.822914Q62.13125 57.104164 62.475 57.635414Q62.81875 58.15104 63.00625 58.90104Q63.19375 59.65104 63.19375 60.93229Q63.19375 62.447914 62.88125 63.36979Q62.584373 64.291664 61.959373 64.80729Q61.35 65.30729 60.396873 65.30729Q59.1625 65.30729 58.44375 64.416664Q57.6 63.354164 57.6 60.93229ZM58.678123 60.93229Q58.678123 63.041664 59.178123 63.74479Q59.678123 64.447914 60.396873 64.447914Q61.13125 64.447914 61.615623 63.74479Q62.115623 63.041664 62.115623 60.93229Q62.115623 58.80729 61.615623 58.11979Q61.13125 57.416664 60.38125 57.416664Q59.6625 57.416664 59.225 58.02604Q58.678123 58.80729 58.678123 60.93229ZM64.6 60.93229Q64.6 59.40104 64.9125 58.479164Q65.225 57.541664 65.83437 57.041664Q66.45937 56.541664 67.39687 56.541664Q68.08437 56.541664 68.6 56.822914Q69.13125 57.104164 69.475 57.635414Q69.81875 58.15104 70.00625 58.90104Q70.19375 59.65104 70.19375 60.93229Q70.19375 62.447914 69.88125 63.36979Q69.58437 64.291664 68.95937 64.80729Q68.35 65.30729 67.39687 65.30729Q66.1625 65.30729 65.44375 64.416664Q64.6 63.354164 64.6 60.93229ZM65.67812 60.93229Q65.67812 63.041664 66.17812 63.74479Q66.67812 64.447914 67.39687 64.447914Q68.13125 64.447914 68.61562 63.74479Q69.11562 63.041664 69.11562 60.93229Q69.11562 58.80729 68.61562 58.11979Q68.13125 57.416664 67.38125 57.416664Q66.6625 57.416664 66.225 58.02604Q65.67812 58.80729 65.67812 60.93229Z" fill-rule="nonzero"/><path fill="#000000" d="M116.062874 338.65L117.17225 338.55624Q117.29725 339.36874 117.73475 339.775Q118.187874 340.18124 118.8285 340.18124Q119.5785 340.18124 120.10975 339.60312Q120.641 339.025 120.641 338.0875Q120.641 337.18124 120.125374 336.66562Q119.625374 336.13437 118.79725 336.13437Q118.29725 336.13437 117.875374 336.36874Q117.469124 336.60312 117.23475 336.9625L116.250374 336.8375L117.0785 332.43124L121.35975 332.43124L121.35975 333.43124L117.92225 333.43124L117.469124 335.74374Q118.23475 335.19687 119.0785 335.19687Q120.2035 335.19687 120.969124 335.97812Q121.750374 336.75937 121.750374 337.99374Q121.750374 339.15 121.0785 340.00937Q120.250374 341.04062 118.8285 341.04062Q117.656624 341.04062 116.906624 340.38437Q116.17225 339.72812 116.062874 338.65ZM127.031624 340.9L125.98475 340.9L125.98475 334.18124Q125.594124 334.54062 124.969124 334.91562Q124.35975 335.275 123.875374 335.44687L123.875374 334.43124Q124.750374 334.00937 125.406624 333.43124Q126.0785 332.8375 126.35975 332.275L127.031624 332.275L127.031624 340.9ZM135.60974 339.88437L135.60974 340.9L129.92224 340.9Q129.92224 340.525 130.04724 340.16562Q130.26599 339.5875 130.73474 339.025Q131.21912 338.4625 132.12537 337.72812Q133.53162 336.57187 134.01599 335.9Q134.51599 335.22812 134.51599 334.63437Q134.51599 334.00937 134.06287 333.5875Q133.60974 333.15 132.89099 333.15Q132.12537 333.15 131.67224 333.60312Q131.21912 334.05624 131.20349 334.86874L130.12537 334.75937Q130.23474 333.54062 130.95349 332.91562Q131.68787 332.275 132.92224 332.275Q134.15662 332.275 134.87537 332.9625Q135.59412 333.65 135.59412 334.66562Q135.59412 335.18124 135.37537 335.68124Q135.17224 336.16562 134.67224 336.72812Q134.18787 337.275 133.06287 338.22812Q132.10974 339.025 131.82849 339.32187Q131.56287 339.60312 131.39099 339.88437L135.60974 339.88437ZM137.45349 340.9L137.45349 332.30624L139.17224 332.30624L141.20349 338.38437Q141.48474 339.24374 141.60974 339.66562Q141.75037 339.19687 142.06287 338.29062L144.12537 332.30624L145.65662 332.30624L145.65662 340.9L144.56287 340.9L144.56287 333.7125L142.06287 340.9L141.03162 340.9L138.54724 333.5875L138.54724 340.9L137.45349 340.9ZM150.10974 338.13437L151.17224 338.04062Q151.25037 338.69687 151.53162 339.10312Q151.81287 339.50937 152.39099 339.775Q152.98474 340.025 153.71912 340.025Q154.35974 340.025 154.85974 339.8375Q155.35974 339.63437 155.59412 339.30624Q155.84412 338.9625 155.84412 338.57187Q155.84412 338.16562 155.60974 337.86874Q155.37537 337.55624 154.84412 337.35312Q154.48474 337.2125 153.29724 336.93124Q152.12537 336.65 151.65662 336.4Q151.03162 336.07187 150.73474 335.60312Q150.43787 335.11874 150.43787 334.525Q150.43787 333.88437 150.79724 333.32187Q151.17224 332.74374 151.87537 332.4625Q152.59412 332.16562 153.45349 332.16562Q154.40662 332.16562 155.14099 332.47812Q155.87537 332.775 156.26599 333.38437Q156.65662 333.97812 156.68787 334.72812L155.59412 334.80624Q155.50037 333.99374 154.98474 333.5875Q154.48474 333.16562 153.50037 333.16562Q152.46912 333.16562 152.00037 333.54062Q151.53162 333.91562 151.53162 334.44687Q151.53162 334.91562 151.85974 335.2125Q152.18787 335.50937 153.56287 335.82187Q154.95349 336.13437 155.46912 336.36874Q156.21912 336.72812 156.57849 337.25937Q156.93787 337.775 156.93787 338.47812Q156.93787 339.16562 156.54724 339.775Q156.15662 340.36874 155.42224 340.7125Q154.68787 341.04062 153.76599 341.04062Q152.59412 341.04062 151.79724 340.7125Q151.01599 340.36874 150.56287 339.68124Q150.12537 338.99374 150.10974 338.13437ZM162.60974 338.9L163.70349 339.025Q163.45349 339.97812 162.75037 340.50937Q162.04724 341.04062 160.96912 341.04062Q159.60974 341.04062 158.79724 340.19687Q158.00037 339.35312 158.00037 337.8375Q158.00037 336.275 158.81287 335.41562Q159.62537 334.54062 160.90662 334.54062Q162.15662 334.54062 162.93787 335.38437Q163.73474 336.22812 163.73474 337.775Q163.73474 337.86874 163.73474 338.05624L159.09412 338.05624Q159.15662 339.0875 159.67224 339.63437Q160.18787 340.16562 160.96912 340.16562Q161.54724 340.16562 161.95349 339.86874Q162.37537 339.55624 162.60974 338.9ZM159.15662 337.19687L162.62537 337.19687Q162.56287 336.4 162.23474 336.00937Q161.71912 335.4 160.92224 335.4Q160.18787 335.4 159.68787 335.88437Q159.20349 336.36874 159.15662 337.19687ZM165.34412 340.9L165.34412 334.68124L166.29724 334.68124L166.29724 335.61874Q166.65662 334.9625 166.95349 334.75937Q167.26599 334.54062 167.64099 334.54062Q168.17224 334.54062 168.71912 334.86874L168.35974 335.85312Q167.96912 335.61874 167.59412 335.61874Q167.23474 335.61874 166.95349 335.8375Q166.68787 336.04062 166.57849 336.41562Q166.39099 336.97812 166.39099 337.63437L166.39099 340.9L165.34412 340.9ZM169.35974 333.525L169.35974 332.30624L170.42224 332.30624L170.42224 333.525L169.35974 333.525ZM169.35974 340.9L169.35974 334.68124L170.42224 334.68124L170.42224 340.9L169.35974 340.9ZM176.42224 340.13437Q175.82849 340.63437 175.28162 340.8375Q174.75037 341.04062 174.12537 341.04062Q173.09412 341.04062 172.54724 340.54062Q172.00037 340.04062 172.00037 339.25937Q172.00037 338.80624 172.20349 338.43124Q172.40662 338.04062 172.75037 337.82187Q173.09412 337.5875 173.51599 337.47812Q173.81287 337.38437 174.45349 337.30624Q175.71912 337.16562 176.32849 336.94687Q176.32849 336.72812 176.32849 336.68124Q176.32849 336.025 176.03162 335.75937Q175.62537 335.41562 174.82849 335.41562Q174.09412 335.41562 173.73474 335.68124Q173.37537 335.93124 173.20349 336.5875L172.17224 336.44687Q172.31287 335.79062 172.64099 335.38437Q172.96912 334.97812 173.57849 334.75937Q174.18787 334.54062 174.98474 334.54062Q175.78162 334.54062 176.28162 334.72812Q176.78162 334.91562 177.01599 335.19687Q177.25037 335.47812 177.34412 335.91562Q177.39099 336.18124 177.39099 336.88437L177.39099 338.29062Q177.39099 339.75937 177.45349 340.15Q177.53162 340.54062 177.73474 340.9L176.62537 340.9Q176.46912 340.57187 176.42224 340.13437ZM176.32849 337.775Q175.75037 338.00937 174.60974 338.18124Q173.95349 338.275 173.68787 338.4Q173.42224 338.50937 173.26599 338.72812Q173.12537 338.94687 173.12537 339.22812Q173.12537 339.65 173.43787 339.93124Q173.76599 340.2125 174.37537 340.2125Q174.98474 340.2125 175.45349 339.94687Q175.93787 339.68124 176.15662 339.2125Q176.32849 338.85312 176.32849 338.16562L176.32849 337.775ZM179.32849 340.9L179.32849 332.30624L180.39099 332.30624L180.39099 340.9L179.32849 340.9Z" fill-rule="nonzero"/><path fill="#000000" d="M208.0449 338.65L209.15428 338.55624Q209.27928 339.36874 209.71678 339.775Q210.1699 340.18124 210.81053 340.18124Q211.56053 340.18124 212.09178 339.60312Q212.62303 339.025 212.62303 338.0875Q212.62303 337.18124 212.1074 336.66562Q211.6074 336.13437 210.77928 336.13437Q210.27928 336.13437 209.8574 336.36874Q209.45116 336.60312 209.21678 336.9625L208.2324 336.8375L209.06053 332.43124L213.34178 332.43124L213.34178 333.43124L209.90428 333.43124L209.45116 335.74374Q210.21678 335.19687 211.06053 335.19687Q212.18553 335.19687 212.95116 335.97812Q213.7324 336.75937 213.7324 337.99374Q213.7324 339.15 213.06053 340.00937Q212.2324 341.04062 210.81053 341.04062Q209.63866 341.04062 208.88866 340.38437Q208.15428 339.72812 208.0449 338.65ZM219.01366 340.9L217.96678 340.9L217.96678 334.18124Q217.57616 334.54062 216.95116 334.91562Q216.34178 335.275 215.8574 335.44687L215.8574 334.43124Q216.7324 334.00937 217.38866 333.43124Q218.06053 332.8375 218.34178 332.275L219.01366 332.275L219.01366 340.9ZM227.59178 339.88437L227.59178 340.9L221.90428 340.9Q221.90428 340.525 222.02928 340.16562Q222.24803 339.5875 222.71678 339.025Q223.20116 338.4625 224.1074 337.72812Q225.51366 336.57187 225.99803 335.9Q226.49803 335.22812 226.49803 334.63437Q226.49803 334.00937 226.0449 333.5875Q225.59178 333.15 224.87303 333.15Q224.1074 333.15 223.65428 333.60312Q223.20116 334.05624 223.18553 334.86874L222.1074 334.75937Q222.21678 333.54062 222.93553 332.91562Q223.6699 332.275 224.90428 332.275Q226.13866 332.275 226.8574 332.9625Q227.57616 333.65 227.57616 334.66562Q227.57616 335.18124 227.3574 335.68124Q227.15428 336.16562 226.65428 336.72812Q226.1699 337.275 225.0449 338.22812Q224.09178 339.025 223.81053 339.32187Q223.5449 339.60312 223.37303 339.88437L227.59178 339.88437ZM229.43553 340.9L229.43553 332.30624L231.15428 332.30624L233.18553 338.38437Q233.46678 339.24374 233.59178 339.66562Q233.7324 339.19687 234.0449 338.29062L236.1074 332.30624L237.63866 332.30624L237.63866 340.9L236.5449 340.9L236.5449 333.7125L234.0449 340.9L233.01366 340.9L230.52928 333.5875L230.52928 340.9L229.43553 340.9ZM242.46678 340.9L242.46678 332.30624L245.71678 332.30624Q246.56053 332.30624 247.01366 332.38437Q247.65428 332.49374 248.07616 332.79062Q248.51366 333.0875 248.76366 333.61874Q249.02928 334.15 249.02928 334.79062Q249.02928 335.88437 248.32616 336.65Q247.63866 337.4 245.81053 337.4L243.6074 337.4L243.6074 340.9L242.46678 340.9ZM243.6074 336.4L245.82616 336.4Q246.93553 336.4 247.38866 335.99374Q247.8574 335.57187 247.8574 334.82187Q247.8574 334.29062 247.57616 333.91562Q247.31053 333.525 246.87303 333.4Q246.57616 333.32187 245.81053 333.32187L243.6074 333.32187L243.6074 336.4ZM254.40428 340.13437Q253.81053 340.63437 253.26366 340.8375Q252.7324 341.04062 252.1074 341.04062Q251.07616 341.04062 250.52928 340.54062Q249.9824 340.04062 249.9824 339.25937Q249.9824 338.80624 250.18553 338.43124Q250.38866 338.04062 250.7324 337.82187Q251.07616 337.5875 251.49803 337.47812Q251.7949 337.38437 252.43553 337.30624Q253.70116 337.16562 254.31053 336.94687Q254.31053 336.72812 254.31053 336.68124Q254.31053 336.025 254.01366 335.75937Q253.6074 335.41562 252.81053 335.41562Q252.07616 335.41562 251.71678 335.68124Q251.3574 335.93124 251.18553 336.5875L250.15428 336.44687Q250.2949 335.79062 250.62303 335.38437Q250.95116 334.97812 251.56053 334.75937Q252.1699 334.54062 252.96678 334.54062Q253.76366 334.54062 254.26366 334.72812Q254.76366 334.91562 254.99803 335.19687Q255.2324 335.47812 255.32616 335.91562Q255.37303 336.18124 255.37303 336.88437L255.37303 338.29062Q255.37303 339.75937 255.43553 340.15Q255.51366 340.54062 255.71678 340.9L254.6074 340.9Q254.45116 340.57187 254.40428 340.13437ZM254.31053 337.775Q253.7324 338.00937 252.59178 338.18124Q251.93553 338.275 251.6699 338.4Q251.40428 338.50937 251.24803 338.72812Q251.1074 338.94687 251.1074 339.22812Q251.1074 339.65 251.4199 339.93124Q251.74803 340.2125 252.3574 340.2125Q252.96678 340.2125 253.43553 339.94687Q253.9199 339.68124 254.13866 339.2125Q254.31053 338.85312 254.31053 338.16562L254.31053 337.775ZM257.32617 340.9L257.32617 334.68124L258.2793 334.68124L258.2793 335.61874Q258.63867 334.9625 258.93555 334.75937Q259.24805 334.54062 259.62305 334.54062Q260.1543 334.54062 260.70117 334.86874L260.3418 335.85312Q259.95117 335.61874 259.57617 335.61874Q259.2168 335.61874 258.93555 335.8375Q258.66992 336.04062 258.56055 336.41562Q258.37305 336.97812 258.37305 337.63437L258.37305 340.9L257.32617 340.9ZM265.4043 340.13437Q264.81055 340.63437 264.26367 340.8375Q263.73242 341.04062 263.10742 341.04062Q262.07617 341.04062 261.5293 340.54062Q260.98242 340.04062 260.98242 339.25937Q260.98242 338.80624 261.18555 338.43124Q261.38867 338.04062 261.73242 337.82187Q262.07617 337.5875 262.49805 337.47812Q262.79492 337.38437 263.43555 337.30624Q264.70117 337.16562 265.31055 336.94687Q265.31055 336.72812 265.31055 336.68124Q265.31055 336.025 265.01367 335.75937Q264.60742 335.41562 263.81055 335.41562Q263.07617 335.41562 262.7168 335.68124Q262.35742 335.93124 262.18555 336.5875L261.1543 336.44687Q261.29492 335.79062 261.62305 335.38437Q261.95117 334.97812 262.56055 334.75937Q263.16992 334.54062 263.9668 334.54062Q264.76367 334.54062 265.26367 334.72812Q265.76367 334.91562 265.99805 335.19687Q266.23242 335.47812 266.32617 335.91562Q266.37305 336.18124 266.37305 336.88437L266.37305 338.29062Q266.37305 339.75937 266.43555 340.15Q266.51367 340.54062 266.7168 340.9L265.60742 340.9Q265.45117 340.57187 265.4043 340.13437ZM265.31055 337.775Q264.73242 338.00937 263.5918 338.18124Q262.93555 338.275 262.66992 338.4Q262.4043 338.50937 262.24805 338.72812Q262.10742 338.94687 262.10742 339.22812Q262.10742 339.65 262.41992 339.93124Q262.74805 340.2125 263.35742 340.2125Q263.9668 340.2125 264.43555 339.94687Q264.91992 339.68124 265.13867 339.2125Q265.31055 338.85312 265.31055 338.16562L265.31055 337.775ZM268.31055 340.9L268.31055 332.30624L269.37305 332.30624L269.37305 340.9L268.31055 340.9ZM271.31055 340.9L271.31055 332.30624L272.37305 332.30624L272.37305 340.9L271.31055 340.9ZM278.5918 338.9L279.68555 339.025Q279.43555 339.97812 278.73242 340.50937Q278.0293 341.04062 276.95117 341.04062Q275.5918 341.04062 274.7793 340.19687Q273.98242 339.35312 273.98242 337.8375Q273.98242 336.275 274.79492 335.41562Q275.60742 334.54062 276.88867 334.54062Q278.13867 334.54062 278.91992 335.38437Q279.7168 336.22812 279.7168 337.775Q279.7168 337.86874 279.7168 338.05624L275.07617 338.05624Q275.13867 339.0875 275.6543 339.63437Q276.16992 340.16562 276.95117 340.16562Q277.5293 340.16562 277.93555 339.86874Q278.35742 339.55624 278.5918 338.9ZM275.13867 337.19687L278.60742 337.19687Q278.54492 336.4 278.2168 336.00937Q277.70117 335.4 276.9043 335.4Q276.16992 335.4 275.66992 335.88437Q275.18555 336.36874 275.13867 337.19687ZM281.31055 340.9L281.31055 332.30624L282.37305 332.30624L282.37305 340.9L281.31055 340.9Z" fill-rule="nonzero"/><path fill="#000000" d="M318.02695 338.65L319.13632 338.55624Q319.26132 339.36874 319.69882 339.775Q320.15195 340.18124 320.79257 340.18124Q321.54257 340.18124 322.07382 339.60312Q322.60507 339.025 322.60507 338.0875Q322.60507 337.18124 322.08945 336.66562Q321.58945 336.13437 320.76132 336.13437Q320.26132 336.13437 319.83945 336.36874Q319.4332 336.60312 319.19882 336.9625L318.21445 336.8375L319.04257 332.43124L323.32382 332.43124L323.32382 333.43124L319.88632 333.43124L319.4332 335.74374Q320.19882 335.19687 321.04257 335.19687Q322.16757 335.19687 322.9332 335.97812Q323.71445 336.75937 323.71445 337.99374Q323.71445 339.15 323.04257 340.00937Q322.21445 341.04062 320.79257 341.04062Q319.6207 341.04062 318.8707 340.38437Q318.13632 339.72812 318.02695 338.65ZM328.9957 340.9L327.94882 340.9L327.94882 334.18124Q327.5582 334.54062 326.9332 334.91562Q326.32382 335.275 325.83945 335.44687L325.83945 334.43124Q326.71445 334.00937 327.3707 333.43124Q328.04257 332.8375 328.32382 332.275L328.9957 332.275L328.9957 340.9ZM337.57382 339.88437L337.57382 340.9L331.88632 340.9Q331.88632 340.525 332.01132 340.16562Q332.23007 339.5875 332.69882 339.025Q333.1832 338.4625 334.08945 337.72812Q335.4957 336.57187 335.98007 335.9Q336.48007 335.22812 336.48007 334.63437Q336.48007 334.00937 336.02695 333.5875Q335.57382 333.15 334.85507 333.15Q334.08945 333.15 333.63632 333.60312Q333.1832 334.05624 333.16757 334.86874L332.08945 334.75937Q332.19882 333.54062 332.91757 332.91562Q333.65195 332.275 334.88632 332.275Q336.1207 332.275 336.83945 332.9625Q337.5582 333.65 337.5582 334.66562Q337.5582 335.18124 337.33945 335.68124Q337.13632 336.16562 336.63632 336.72812Q336.15195 337.275 335.02695 338.22812Q334.07382 339.025 333.79257 339.32187Q333.52695 339.60312 333.35507 339.88437L337.57382 339.88437ZM339.41757 340.9L339.41757 332.30624L341.13632 332.30624L343.16757 338.38437Q343.44882 339.24374 343.57382 339.66562Q343.71445 339.19687 344.02695 338.29062L346.08945 332.30624L347.6207 332.30624L347.6207 340.9L346.52695 340.9L346.52695 333.7125L344.02695 340.9L342.9957 340.9L340.51132 333.5875L340.51132 340.9L339.41757 340.9ZM356.48007 337.525L356.48007 336.525L360.10507 336.50937L360.10507 339.69687Q359.27695 340.36874 358.38632 340.7125Q357.4957 341.04062 356.5582 341.04062Q355.29257 341.04062 354.2457 340.50937Q353.21445 339.9625 352.6832 338.94687Q352.16757 337.91562 352.16757 336.65Q352.16757 335.38437 352.6832 334.30624Q353.21445 333.2125 354.19882 332.69687Q355.1832 332.16562 356.46445 332.16562Q357.40195 332.16562 358.15195 332.4625Q358.90195 332.75937 359.32382 333.30624Q359.76132 333.8375 359.98007 334.7125L358.96445 334.99374Q358.76132 334.3375 358.46445 333.9625Q358.1832 333.5875 357.65195 333.36874Q357.1207 333.13437 356.48007 333.13437Q355.69882 333.13437 355.1207 333.36874Q354.5582 333.60312 354.19882 333.99374Q353.85507 334.38437 353.66757 334.85312Q353.33945 335.65 353.33945 336.57187Q353.33945 337.72812 353.73007 338.50937Q354.13632 339.275 354.88632 339.65Q355.63632 340.025 356.4957 340.025Q357.23007 340.025 357.9332 339.74374Q358.63632 339.44687 358.9957 339.13437L358.9957 337.525L356.48007 337.525ZM364.9957 340.9L363.94882 340.9L363.94882 334.18124Q363.5582 334.54062 362.9332 334.91562Q362.32382 335.275 361.83945 335.44687L361.83945 334.43124Q362.71445 334.00937 363.3707 333.43124Q364.04257 332.8375 364.32382 332.275L364.9957 332.275L364.9957 340.9Z" fill-rule="nonzero"/><path fill="#000000" d="M387.50897 338.65L388.61835 338.55624Q388.74335 339.36874 389.18085 339.775Q389.63397 340.18124 390.2746 340.18124Q391.0246 340.18124 391.55585 339.60312Q392.0871 339.025 392.0871 338.0875Q392.0871 337.18124 391.57147 336.66562Q391.07147 336.13437 390.24335 336.13437Q389.74335 336.13437 389.32147 336.36874Q388.91522 336.60312 388.68085 336.9625L387.69647 336.8375L388.5246 332.43124L392.80585 332.43124L392.80585 333.43124L389.36835 333.43124L388.91522 335.74374Q389.68085 335.19687 390.5246 335.19687Q391.6496 335.19687 392.41522 335.97812Q393.19647 336.75937 393.19647 337.99374Q393.19647 339.15 392.5246 340.00937Q391.69647 341.04062 390.2746 341.04062Q389.10272 341.04062 388.35272 340.38437Q387.61835 339.72812 387.50897 338.65ZM398.47772 340.9L397.43085 340.9L397.43085 334.18124Q397.04022 334.54062 396.41522 334.91562Q395.80585 335.275 395.32147 335.44687L395.32147 334.43124Q396.19647 334.00937 396.85272 333.43124Q397.5246 332.8375 397.80585 332.275L398.47772 332.275L398.47772 340.9ZM407.05585 339.88437L407.05585 340.9L401.36835 340.9Q401.36835 340.525 401.49335 340.16562Q401.7121 339.5875 402.18085 339.025Q402.66522 338.4625 403.57147 337.72812Q404.97772 336.57187 405.4621 335.9Q405.9621 335.22812 405.9621 334.63437Q405.9621 334.00937 405.50897 333.5875Q405.05585 333.15 404.3371 333.15Q403.57147 333.15 403.11835 333.60312Q402.66522 334.05624 402.6496 334.86874L401.57147 334.75937Q401.68085 333.54062 402.3996 332.91562Q403.13397 332.275 404.36835 332.275Q405.60272 332.275 406.32147 332.9625Q407.04022 333.65 407.04022 334.66562Q407.04022 335.18124 406.82147 335.68124Q406.61835 336.16562 406.11835 336.72812Q405.63397 337.275 404.50897 338.22812Q403.55585 339.025 403.2746 339.32187Q403.00897 339.60312 402.8371 339.88437L407.05585 339.88437ZM408.8996 340.9L408.8996 332.30624L410.61835 332.30624L412.6496 338.38437Q412.93085 339.24374 413.05585 339.66562Q413.19647 339.19687 413.50897 338.29062L415.57147 332.30624L417.10272 332.30624L417.10272 340.9L416.00897 340.9L416.00897 333.7125L413.50897 340.9L412.47772 340.9L409.99335 333.5875L409.99335 340.9L408.8996 340.9ZM421.55585 338.13437L422.61835 338.04062Q422.69647 338.69687 422.97772 339.10312Q423.25897 339.50937 423.8371 339.775Q424.43085 340.025 425.16522 340.025Q425.80585 340.025 426.30585 339.8375Q426.80585 339.63437 427.04022 339.30624Q427.29022 338.9625 427.29022 338.57187Q427.29022 338.16562 427.05585 337.86874Q426.82147 337.55624 426.29022 337.35312Q425.93085 337.2125 424.74335 336.93124Q423.57147 336.65 423.10272 336.4Q422.47772 336.07187 422.18085 335.60312Q421.88397 335.11874 421.88397 334.525Q421.88397 333.88437 422.24335 333.32187Q422.61835 332.74374 423.32147 332.4625Q424.04022 332.16562 424.8996 332.16562Q425.85272 332.16562 426.5871 332.47812Q427.32147 332.775 427.7121 333.38437Q428.10272 333.97812 428.13397 334.72812L427.04022 334.80624Q426.94647 333.99374 426.43085 333.5875Q425.93085 333.16562 424.94647 333.16562Q423.91522 333.16562 423.44647 333.54062Q422.97772 333.91562 422.97772 334.44687Q422.97772 334.91562 423.30585 335.2125Q423.63397 335.50937 425.00897 335.82187Q426.3996 336.13437 426.91522 336.36874Q427.66522 336.72812 428.0246 337.25937Q428.38397 337.775 428.38397 338.47812Q428.38397 339.16562 427.99335 339.775Q427.60272 340.36874 426.86835 340.7125Q426.13397 341.04062 425.2121 341.04062Q424.04022 341.04062 423.24335 340.7125Q422.4621 340.36874 422.00897 339.68124Q421.57147 338.99374 421.55585 338.13437ZM429.80585 340.9L429.80585 332.30624L430.85272 332.30624L430.85272 335.38437Q431.5871 334.54062 432.7121 334.54062Q433.41522 334.54062 433.91522 334.82187Q434.43085 335.0875 434.6496 335.57187Q434.86835 336.04062 434.86835 336.9625L434.86835 340.9L433.82147 340.9L433.82147 336.9625Q433.82147 336.16562 433.47772 335.80624Q433.13397 335.44687 432.50897 335.44687Q432.04022 335.44687 431.61835 335.69687Q431.2121 335.93124 431.0246 336.35312Q430.85272 336.75937 430.85272 337.49374L430.85272 340.9L429.80585 340.9ZM441.05585 338.9L442.1496 339.025Q441.8996 339.97812 441.19647 340.50937Q440.49335 341.04062 439.41522 341.04062Q438.05585 341.04062 437.24335 340.19687Q436.44647 339.35312 436.44647 337.8375Q436.44647 336.275 437.25897 335.41562Q438.07147 334.54062 439.35272 334.54062Q440.60272 334.54062 441.38397 335.38437Q442.18085 336.22812 442.18085 337.775Q442.18085 337.86874 442.18085 338.05624L437.54022 338.05624Q437.60272 339.0875 438.11835 339.63437Q438.63397 340.16562 439.41522 340.16562Q439.99335 340.16562 440.3996 339.86874Q440.82147 339.55624 441.05585 338.9ZM437.60272 337.19687L441.07147 337.19687Q441.00897 336.4 440.68085 336.00937Q440.16522 335.4 439.36835 335.4Q438.63397 335.4 438.13397 335.88437Q437.6496 336.36874 437.60272 337.19687ZM443.80585 340.9L443.80585 334.68124L444.74335 334.68124L444.74335 335.55624Q445.43085 334.54062 446.72772 334.54062Q447.29022 334.54062 447.75897 334.74374Q448.24335 334.94687 448.47772 335.275Q448.7121 335.60312 448.80585 336.04062Q448.85272 336.3375 448.85272 337.07187L448.85272 340.9L447.80585 340.9L447.80585 337.11874Q447.80585 336.4625 447.68085 336.15Q447.55585 335.8375 447.24335 335.65Q446.93085 335.44687 446.50897 335.44687Q445.8371 335.44687 445.3371 335.88437Q444.85272 336.30624 444.85272 337.49374L444.85272 340.9L443.80585 340.9ZM454.86835 340.13437Q454.2746 340.63437 453.72772 340.8375Q453.19647 341.04062 452.57147 341.04062Q451.54022 341.04062 450.99335 340.54062Q450.44647 340.04062 450.44647 339.25937Q450.44647 338.80624 450.6496 338.43124Q450.85272 338.04062 451.19647 337.82187Q451.54022 337.5875 451.9621 337.47812Q452.25897 337.38437 452.8996 337.30624Q454.16522 337.16562 454.7746 336.94687Q454.7746 336.72812 454.7746 336.68124Q454.7746 336.025 454.47772 335.75937Q454.07147 335.41562 453.2746 335.41562Q452.54022 335.41562 452.18085 335.68124Q451.82147 335.93124 451.6496 336.5875L450.61835 336.44687Q450.75897 335.79062 451.0871 335.38437Q451.41522 334.97812 452.0246 334.75937Q452.63397 334.54062 453.43085 334.54062Q454.22772 334.54062 454.72772 334.72812Q455.22772 334.91562 455.4621 335.19687Q455.69647 335.47812 455.79022 335.91562Q455.8371 336.18124 455.8371 336.88437L455.8371 338.29062Q455.8371 339.75937 455.8996 340.15Q455.97772 340.54062 456.18085 340.9L455.07147 340.9Q454.91522 340.57187 454.86835 340.13437ZM454.7746 337.775Q454.19647 338.00937 453.05585 338.18124Q452.3996 338.275 452.13397 338.4Q451.86835 338.50937 451.7121 338.72812Q451.57147 338.94687 451.57147 339.22812Q451.57147 339.65 451.88397 339.93124Q452.2121 340.2125 452.82147 340.2125Q453.43085 340.2125 453.8996 339.94687Q454.38397 339.68124 454.60272 339.2125Q454.7746 338.85312 454.7746 338.16562L454.7746 337.775ZM457.80585 340.9L457.80585 334.68124L458.74335 334.68124L458.74335 335.55624Q459.43085 334.54062 460.72772 334.54062Q461.29022 334.54062 461.75897 334.74374Q462.24335 334.94687 462.47772 335.275Q462.7121 335.60312 462.80585 336.04062Q462.85272 336.3375 462.85272 337.07187L462.85272 340.9L461.80585 340.9L461.80585 337.11874Q461.80585 336.4625 461.68085 336.15Q461.55585 335.8375 461.24335 335.65Q460.93085 335.44687 460.50897 335.44687Q459.8371 335.44687 459.3371 335.88437Q458.85272 336.30624 458.85272 337.49374L458.85272 340.9L457.80585 340.9ZM468.8371 340.9L468.8371 340.11874Q468.24335 341.04062 467.10272 341.04062Q466.35272 341.04062 465.72772 340.63437Q465.10272 340.2125 464.75897 339.47812Q464.41522 338.74374 464.41522 337.79062Q464.41522 336.86874 464.72772 336.10312Q465.04022 335.3375 465.66522 334.94687Q466.29022 334.54062 467.05585 334.54062Q467.61835 334.54062 468.05585 334.775Q468.49335 335.00937 468.7746 335.38437L468.7746 332.30624L469.82147 332.30624L469.82147 340.9L468.8371 340.9ZM465.50897 337.79062Q465.50897 338.99374 466.00897 339.5875Q466.50897 340.16562 467.19647 340.16562Q467.88397 340.16562 468.36835 339.60312Q468.85272 339.04062 468.85272 337.88437Q468.85272 336.60312 468.35272 336.00937Q467.86835 335.41562 467.1496 335.41562Q466.44647 335.41562 465.97772 335.99374Q465.50897 336.55624 465.50897 337.79062ZM471.41522 337.79062Q471.41522 336.05624 472.36835 335.22812Q473.16522 334.54062 474.32147 334.54062Q475.60272 334.54062 476.41522 335.38437Q477.24335 336.2125 477.24335 337.69687Q477.24335 338.9 476.88397 339.5875Q476.5246 340.275 475.82147 340.66562Q475.13397 341.04062 474.32147 341.04062Q473.0246 341.04062 472.2121 340.2125Q471.41522 339.36874 471.41522 337.79062ZM472.49335 337.79062Q472.49335 338.97812 473.00897 339.57187Q473.54022 340.16562 474.32147 340.16562Q475.11835 340.16562 475.63397 339.57187Q476.1496 338.97812 476.1496 337.75937Q476.1496 336.60312 475.61835 336.00937Q475.10272 335.41562 474.32147 335.41562Q473.54022 335.41562 473.00897 336.00937Q472.49335 336.5875 472.49335 337.79062ZM482.86835 340.13437Q482.2746 340.63437 481.72772 340.8375Q481.19647 341.04062 480.57147 341.04062Q479.54022 341.04062 478.99335 340.54062Q478.44647 340.04062 478.44647 339.25937Q478.44647 338.80624 478.6496 338.43124Q478.85272 338.04062 479.19647 337.82187Q479.54022 337.5875 479.9621 337.47812Q480.25897 337.38437 480.8996 337.30624Q482.16522 337.16562 482.7746 336.94687Q482.7746 336.72812 482.7746 336.68124Q482.7746 336.025 482.47772 335.75937Q482.07147 335.41562 481.2746 335.41562Q480.54022 335.41562 480.18085 335.68124Q479.82147 335.93124 479.6496 336.5875L478.61835 336.44687Q478.75897 335.79062 479.0871 335.38437Q479.41522 334.97812 480.0246 334.75937Q480.63397 334.54062 481.43085 334.54062Q482.22772 334.54062 482.72772 334.72812Q483.22772 334.91562 483.4621 335.19687Q483.69647 335.47812 483.79022 335.91562Q483.8371 336.18124 483.8371 336.88437L483.8371 338.29062Q483.8371 339.75937 483.8996 340.15Q483.97772 340.54062 484.18085 340.9L483.07147 340.9Q482.91522 340.57187 482.86835 340.13437ZM482.7746 337.775Q482.19647 338.00937 481.05585 338.18124Q480.3996 338.275 480.13397 338.4Q479.86835 338.50937 479.7121 338.72812Q479.57147 338.94687 479.57147 339.22812Q479.57147 339.65 479.88397 339.93124Q480.2121 340.2125 480.82147 340.2125Q481.43085 340.2125 481.8996 339.94687Q482.38397 339.68124 482.60272 339.2125Q482.7746 338.85312 482.7746 338.16562L482.7746 337.775ZM485.80585 340.9L485.80585 332.30624L486.85272 332.30624L486.85272 335.38437Q487.5871 334.54062 488.7121 334.54062Q489.41522 334.54062 489.91522 334.82187Q490.43085 335.0875 490.6496 335.57187Q490.86835 336.04062 490.86835 336.9625L490.86835 340.9L489.82147 340.9L489.82147 336.9625Q489.82147 336.16562 489.47772 335.80624Q489.13397 335.44687 488.50897 335.44687Q488.04022 335.44687 487.61835 335.69687Q487.2121 335.93124 487.0246 336.35312Q486.85272 336.75937 486.85272 337.49374L486.85272 340.9L485.80585 340.9Z" fill-rule="nonzero"/><path fill="#000000" d="M511.95978 340.9L510.9129 340.9L510.9129 334.18124Q510.52228 334.54062 509.89728 334.91562Q509.2879 335.275 508.80353 335.44687L508.80353 334.43124Q509.67853 334.00937 510.33478 333.43124Q511.00665 332.8375 511.2879 332.275L511.95978 332.275L511.95978 340.9ZM520.5379 339.88437L520.5379 340.9L514.8504 340.9Q514.8504 340.525 514.9754 340.16562Q515.19415 339.5875 515.6629 339.025Q516.1473 338.4625 517.0535 337.72812Q518.4598 336.57187 518.94415 335.9Q519.44415 335.22812 519.44415 334.63437Q519.44415 334.00937 518.991 333.5875Q518.5379 333.15 517.81915 333.15Q517.0535 333.15 516.6004 333.60312Q516.1473 334.05624 516.13165 334.86874L515.0535 334.75937Q515.1629 333.54062 515.88165 332.91562Q516.616 332.275 517.8504 332.275Q519.0848 332.275 519.8035 332.9625Q520.5223 333.65 520.5223 334.66562Q520.5223 335.18124 520.3035 335.68124Q520.1004 336.16562 519.6004 336.72812Q519.116 337.275 517.991 338.22812Q517.0379 339.025 516.75665 339.32187Q516.491 339.60312 516.31915 339.88437L520.5379 339.88437ZM526.44415 337.525L526.44415 336.525L530.06915 336.50937L530.06915 339.69687Q529.241 340.36874 528.3504 340.7125Q527.4598 341.04062 526.5223 341.04062Q525.25665 341.04062 524.2098 340.50937Q523.1785 339.9625 522.6473 338.94687Q522.13165 337.91562 522.13165 336.65Q522.13165 335.38437 522.6473 334.30624Q523.1785 333.2125 524.1629 332.69687Q525.1473 332.16562 526.4285 332.16562Q527.366 332.16562 528.116 332.4625Q528.866 332.75937 529.2879 333.30624Q529.7254 333.8375 529.94415 334.7125L528.9285 334.99374Q528.7254 334.3375 528.4285 333.9625Q528.1473 333.5875 527.616 333.36874Q527.0848 333.13437 526.44415 333.13437Q525.6629 333.13437 525.0848 333.36874Q524.5223 333.60312 524.1629 333.99374Q523.81915 334.38437 523.63165 334.85312Q523.3035 335.65 523.3035 336.57187Q523.3035 337.72812 523.69415 338.50937Q524.1004 339.275 524.8504 339.65Q525.6004 340.025 526.4598 340.025Q527.19415 340.025 527.8973 339.74374Q528.6004 339.44687 528.9598 339.13437L528.9598 337.525L526.44415 337.525ZM534.0379 338.13437L535.1004 338.04062Q535.1785 338.69687 535.4598 339.10312Q535.741 339.50937 536.31915 339.775Q536.9129 340.025 537.6473 340.025Q538.2879 340.025 538.7879 339.8375Q539.2879 339.63437 539.5223 339.30624Q539.7723 338.9625 539.7723 338.57187Q539.7723 338.16562 539.5379 337.86874Q539.3035 337.55624 538.7723 337.35312Q538.4129 337.2125 537.2254 336.93124Q536.0535 336.65 535.5848 336.4Q534.9598 336.07187 534.6629 335.60312Q534.366 335.11874 534.366 334.525Q534.366 333.88437 534.7254 333.32187Q535.1004 332.74374 535.8035 332.4625Q536.5223 332.16562 537.38165 332.16562Q538.3348 332.16562 539.06915 332.47812Q539.8035 332.775 540.19415 333.38437Q540.5848 333.97812 540.616 334.72812L539.5223 334.80624Q539.4285 333.99374 538.9129 333.5875Q538.4129 333.16562 537.4285 333.16562Q536.3973 333.16562 535.9285 333.54062Q535.4598 333.91562 535.4598 334.44687Q535.4598 334.91562 535.7879 335.2125Q536.116 335.50937 537.491 335.82187Q538.88165 336.13437 539.3973 336.36874Q540.1473 336.72812 540.50665 337.25937Q540.866 337.775 540.866 338.47812Q540.866 339.16562 540.4754 339.775Q540.0848 340.36874 539.3504 340.7125Q538.616 341.04062 537.69415 341.04062Q536.5223 341.04062 535.7254 340.7125Q534.94415 340.36874 534.491 339.68124Q534.0535 338.99374 534.0379 338.13437ZM546.5379 338.9L547.63165 339.025Q547.38165 339.97812 546.6785 340.50937Q545.9754 341.04062 544.8973 341.04062Q543.5379 341.04062 542.7254 340.19687Q541.9285 339.35312 541.9285 337.8375Q541.9285 336.275 542.741 335.41562Q543.5535 334.54062 544.8348 334.54062Q546.0848 334.54062 546.866 335.38437Q547.6629 336.22812 547.6629 337.775Q547.6629 337.86874 547.6629 338.05624L543.0223 338.05624Q543.0848 339.0875 543.6004 339.63437Q544.116 340.16562 544.8973 340.16562Q545.4754 340.16562 545.88165 339.86874Q546.3035 339.55624 546.5379 338.9ZM543.0848 337.19687L546.5535 337.19687Q546.491 336.4 546.1629 336.00937Q545.6473 335.4 544.8504 335.4Q544.116 335.4 543.616 335.88437Q543.13165 336.36874 543.0848 337.19687ZM549.2723 340.9L549.2723 334.68124L550.2254 334.68124L550.2254 335.61874Q550.5848 334.9625 550.88165 334.75937Q551.19415 334.54062 551.56915 334.54062Q552.1004 334.54062 552.6473 334.86874L552.2879 335.85312Q551.8973 335.61874 551.5223 335.61874Q551.1629 335.61874 550.88165 335.8375Q550.616 336.04062 550.50665 336.41562Q550.31915 336.97812 550.31915 337.63437L550.31915 340.9L549.2723 340.9ZM553.2879 333.525L553.2879 332.30624L554.3504 332.30624L554.3504 333.525L553.2879 333.525ZM553.2879 340.9L553.2879 334.68124L554.3504 334.68124L554.3504 340.9L553.2879 340.9ZM560.3504 340.13437Q559.75665 340.63437 559.2098 340.8375Q558.6785 341.04062 558.0535 341.04062Q557.0223 341.04062 556.4754 340.54062Q555.9285 340.04062 555.9285 339.25937Q555.9285 338.80624 556.13165 338.43124Q556.3348 338.04062 556.6785 337.82187Q557.0223 337.5875 557.44415 337.47812Q557.741 337.38437 558.38165 337.30624Q559.6473 337.16562 560.25665 336.94687Q560.25665 336.72812 560.25665 336.68124Q560.25665 336.025 559.9598 335.75937Q559.5535 335.41562 558.75665 335.41562Q558.0223 335.41562 557.6629 335.68124Q557.3035 335.93124 557.13165 336.5875L556.1004 336.44687Q556.241 335.79062 556.56915 335.38437Q556.8973 334.97812 557.50665 334.75937Q558.116 334.54062 558.9129 334.54062Q559.7098 334.54062 560.2098 334.72812Q560.7098 334.91562 560.94415 335.19687Q561.1785 335.47812 561.2723 335.91562Q561.31915 336.18124 561.31915 336.88437L561.31915 338.29062Q561.31915 339.75937 561.38165 340.15Q561.4598 340.54062 561.6629 340.9L560.5535 340.9Q560.3973 340.57187 560.3504 340.13437ZM560.25665 337.775Q559.6785 338.00937 558.5379 338.18124Q557.88165 338.275 557.616 338.4Q557.3504 338.50937 557.19415 338.72812Q557.0535 338.94687 557.0535 339.22812Q557.0535 339.65 557.366 339.93124Q557.69415 340.2125 558.3035 340.2125Q558.9129 340.2125 559.38165 339.94687Q559.866 339.68124 560.0848 339.2125Q560.25665 338.85312 560.25665 338.16562L560.25665 337.775ZM563.25665 340.9L563.25665 332.30624L564.31915 332.30624L564.31915 340.9L563.25665 340.9Z" fill-rule="nonzero"/><path fill="#000000" d="M603.94183 340.9L602.89496 340.9L602.89496 334.18124Q602.50433 334.54062 601.87933 334.91562Q601.26996 335.275 600.7856 335.44687L600.7856 334.43124Q601.6606 334.00937 602.31683 333.43124Q602.9887 332.8375 603.26996 332.275L603.94183 332.275L603.94183 340.9ZM612.51996 339.88437L612.51996 340.9L606.83246 340.9Q606.83246 340.525 606.95746 340.16562Q607.1762 339.5875 607.64496 339.025Q608.12933 338.4625 609.0356 337.72812Q610.44183 336.57187 610.9262 335.9Q611.4262 335.22812 611.4262 334.63437Q611.4262 334.00937 610.9731 333.5875Q610.51996 333.15 609.8012 333.15Q609.0356 333.15 608.58246 333.60312Q608.12933 334.05624 608.1137 334.86874L607.0356 334.75937Q607.14496 333.54062 607.8637 332.91562Q608.5981 332.275 609.83246 332.275Q611.06683 332.275 611.7856 332.9625Q612.50433 333.65 612.50433 334.66562Q612.50433 335.18124 612.2856 335.68124Q612.08246 336.16562 611.58246 336.72812Q611.0981 337.275 609.9731 338.22812Q609.01996 339.025 608.7387 339.32187Q608.4731 339.60312 608.3012 339.88437L612.51996 339.88437ZM618.4262 337.525L618.4262 336.525L622.0512 336.50937L622.0512 339.69687Q621.2231 340.36874 620.33246 340.7125Q619.44183 341.04062 618.50433 341.04062Q617.2387 341.04062 616.19183 340.50937Q615.1606 339.9625 614.62933 338.94687Q614.1137 337.91562 614.1137 336.65Q614.1137 335.38437 614.62933 334.30624Q615.1606 333.2125 616.14496 332.69687Q617.12933 332.16562 618.4106 332.16562Q619.3481 332.16562 620.0981 332.4625Q620.8481 332.75937 621.26996 333.30624Q621.70746 333.8375 621.9262 334.7125L620.9106 334.99374Q620.70746 334.3375 620.4106 333.9625Q620.12933 333.5875 619.5981 333.36874Q619.06683 333.13437 618.4262 333.13437Q617.64496 333.13437 617.06683 333.36874Q616.50433 333.60312 616.14496 333.99374Q615.8012 334.38437 615.6137 334.85312Q615.2856 335.65 615.2856 336.57187Q615.2856 337.72812 615.6762 338.50937Q616.08246 339.275 616.83246 339.65Q617.58246 340.025 618.44183 340.025Q619.1762 340.025 619.87933 339.74374Q620.58246 339.44687 620.94183 339.13437L620.94183 337.525L618.4262 337.525ZM626.39496 340.9L626.39496 332.30624L629.64496 332.30624Q630.4887 332.30624 630.94183 332.38437Q631.58246 332.49374 632.00433 332.79062Q632.44183 333.0875 632.69183 333.61874Q632.95746 334.15 632.95746 334.79062Q632.95746 335.88437 632.25433 336.65Q631.56683 337.4 629.7387 337.4L627.5356 337.4L627.5356 340.9L626.39496 340.9ZM627.5356 336.4L629.75433 336.4Q630.8637 336.4 631.31683 335.99374Q631.7856 335.57187 631.7856 334.82187Q631.7856 334.29062 631.50433 333.91562Q631.2387 333.525 630.8012 333.4Q630.50433 333.32187 629.7387 333.32187L627.5356 333.32187L627.5356 336.4ZM638.33246 340.13437Q637.7387 340.63437 637.19183 340.8375Q636.6606 341.04062 636.0356 341.04062Q635.00433 341.04062 634.45746 340.54062Q633.9106 340.04062 633.9106 339.25937Q633.9106 338.80624 634.1137 338.43124Q634.31683 338.04062 634.6606 337.82187Q635.00433 337.5875 635.4262 337.47812Q635.7231 337.38437 636.3637 337.30624Q637.62933 337.16562 638.2387 336.94687Q638.2387 336.72812 638.2387 336.68124Q638.2387 336.025 637.94183 335.75937Q637.5356 335.41562 636.7387 335.41562Q636.00433 335.41562 635.64496 335.68124Q635.2856 335.93124 635.1137 336.5875L634.08246 336.44687Q634.2231 335.79062 634.5512 335.38437Q634.87933 334.97812 635.4887 334.75937Q636.0981 334.54062 636.89496 334.54062Q637.69183 334.54062 638.19183 334.72812Q638.69183 334.91562 638.9262 335.19687Q639.1606 335.47812 639.25433 335.91562Q639.3012 336.18124 639.3012 336.88437L639.3012 338.29062Q639.3012 339.75937 639.3637 340.15Q639.44183 340.54062 639.64496 340.9L638.5356 340.9Q638.37933 340.57187 638.33246 340.13437ZM638.2387 337.775Q637.6606 338.00937 636.51996 338.18124Q635.8637 338.275 635.5981 338.4Q635.33246 338.50937 635.1762 338.72812Q635.0356 338.94687 635.0356 339.22812Q635.0356 339.65 635.3481 339.93124Q635.6762 340.2125 636.2856 340.2125Q636.89496 340.2125 637.3637 339.94687Q637.8481 339.68124 638.06683 339.2125Q638.2387 338.85312 638.2387 338.16562L638.2387 337.775ZM641.25433 340.9L641.25433 334.68124L642.20746 334.68124L642.20746 335.61874Q642.56683 334.9625 642.8637 334.75937Q643.1762 334.54062 643.5512 334.54062Q644.08246 334.54062 644.62933 334.86874L644.26996 335.85312Q643.87933 335.61874 643.50433 335.61874Q643.14496 335.61874 642.8637 335.8375Q642.5981 336.04062 642.4887 336.41562Q642.3012 336.97812 642.3012 337.63437L642.3012 340.9L641.25433 340.9ZM649.33246 340.13437Q648.7387 340.63437 648.19183 340.8375Q647.6606 341.04062 647.0356 341.04062Q646.00433 341.04062 645.45746 340.54062Q644.9106 340.04062 644.9106 339.25937Q644.9106 338.80624 645.1137 338.43124Q645.31683 338.04062 645.6606 337.82187Q646.00433 337.5875 646.4262 337.47812Q646.7231 337.38437 647.3637 337.30624Q648.62933 337.16562 649.2387 336.94687Q649.2387 336.72812 649.2387 336.68124Q649.2387 336.025 648.94183 335.75937Q648.5356 335.41562 647.7387 335.41562Q647.00433 335.41562 646.64496 335.68124Q646.2856 335.93124 646.1137 336.5875L645.08246 336.44687Q645.2231 335.79062 645.5512 335.38437Q645.87933 334.97812 646.4887 334.75937Q647.0981 334.54062 647.89496 334.54062Q648.69183 334.54062 649.19183 334.72812Q649.69183 334.91562 649.9262 335.19687Q650.1606 335.47812 650.25433 335.91562Q650.3012 336.18124 650.3012 336.88437L650.3012 338.29062Q650.3012 339.75937 650.3637 340.15Q650.44183 340.54062 650.64496 340.9L649.5356 340.9Q649.37933 340.57187 649.33246 340.13437ZM649.2387 337.775Q648.6606 338.00937 647.51996 338.18124Q646.8637 338.275 646.5981 338.4Q646.33246 338.50937 646.1762 338.72812Q646.0356 338.94687 646.0356 339.22812Q646.0356 339.65 646.3481 339.93124Q646.6762 340.2125 647.2856 340.2125Q647.89496 340.2125 648.3637 339.94687Q648.8481 339.68124 649.06683 339.2125Q649.2387 338.85312 649.2387 338.16562L649.2387 337.775ZM652.2387 340.9L652.2387 332.30624L653.3012 332.30624L653.3012 340.9L652.2387 340.9ZM655.2387 340.9L655.2387 332.30624L656.3012 332.30624L656.3012 340.9L655.2387 340.9ZM662.51996 338.9L663.6137 339.025Q663.3637 339.97812 662.6606 340.50937Q661.95746 341.04062 660.87933 341.04062Q659.51996 341.04062 658.70746 340.19687Q657.9106 339.35312 657.9106 337.8375Q657.9106 336.275 658.7231 335.41562Q659.5356 334.54062 660.81683 334.54062Q662.06683 334.54062 662.8481 335.38437Q663.64496 336.22812 663.64496 337.775Q663.64496 337.86874 663.64496 338.05624L659.00433 338.05624Q659.06683 339.0875 659.58246 339.63437Q660.0981 340.16562 660.87933 340.16562Q661.45746 340.16562 661.8637 339.86874Q662.2856 339.55624 662.51996 338.9ZM659.06683 337.19687L662.5356 337.19687Q662.4731 336.4 662.14496 336.00937Q661.62933 335.4 660.83246 335.4Q660.0981 335.4 659.5981 335.88437Q659.1137 336.36874 659.06683 337.19687ZM665.2387 340.9L665.2387 332.30624L666.3012 332.30624L666.3012 340.9L665.2387 340.9Z" fill-rule="nonzero"/><path fill="#000000" d="M713.9238 340.9L712.87695 340.9L712.87695 334.18124Q712.4863 334.54062 711.8613 334.91562Q711.25195 335.275 710.7676 335.44687L710.7676 334.43124Q711.6426 334.00937 712.2988 333.43124Q712.9707 332.8375 713.25195 332.275L713.9238 332.275L713.9238 340.9ZM722.50195 339.88437L722.50195 340.9L716.81445 340.9Q716.81445 340.525 716.93945 340.16562Q717.1582 339.5875 717.62695 339.025Q718.1113 338.4625 719.0176 337.72812Q720.4238 336.57187 720.9082 335.9Q721.4082 335.22812 721.4082 334.63437Q721.4082 334.00937 720.9551 333.5875Q720.50195 333.15 719.7832 333.15Q719.0176 333.15 718.56445 333.60312Q718.1113 334.05624 718.0957 334.86874L717.0176 334.75937Q717.12695 333.54062 717.8457 332.91562Q718.5801 332.275 719.81445 332.275Q721.0488 332.275 721.7676 332.9625Q722.4863 333.65 722.4863 334.66562Q722.4863 335.18124 722.2676 335.68124Q722.06445 336.16562 721.56445 336.72812Q721.0801 337.275 719.9551 338.22812Q719.00195 339.025 718.7207 339.32187Q718.4551 339.60312 718.2832 339.88437L722.50195 339.88437ZM728.4082 337.525L728.4082 336.525L732.0332 336.50937L732.0332 339.69687Q731.2051 340.36874 730.31445 340.7125Q729.4238 341.04062 728.4863 341.04062Q727.2207 341.04062 726.1738 340.50937Q725.1426 339.9625 724.6113 338.94687Q724.0957 337.91562 724.0957 336.65Q724.0957 335.38437 724.6113 334.30624Q725.1426 333.2125 726.12695 332.69687Q727.1113 332.16562 728.3926 332.16562Q729.3301 332.16562 730.0801 332.4625Q730.8301 332.75937 731.25195 333.30624Q731.68945 333.8375 731.9082 334.7125L730.8926 334.99374Q730.68945 334.3375 730.3926 333.9625Q730.1113 333.5875 729.5801 333.36874Q729.0488 333.13437 728.4082 333.13437Q727.62695 333.13437 727.0488 333.36874Q726.4863 333.60312 726.12695 333.99374Q725.7832 334.38437 725.5957 334.85312Q725.2676 335.65 725.2676 336.57187Q725.2676 337.72812 725.6582 338.50937Q726.06445 339.275 726.81445 339.65Q727.56445 340.025 728.4238 340.025Q729.1582 340.025 729.8613 339.74374Q730.56445 339.44687 730.9238 339.13437L730.9238 337.525L728.4082 337.525ZM740.4082 337.525L740.4082 336.525L744.0332 336.50937L744.0332 339.69687Q743.2051 340.36874 742.31445 340.7125Q741.4238 341.04062 740.4863 341.04062Q739.2207 341.04062 738.1738 340.50937Q737.1426 339.9625 736.6113 338.94687Q736.0957 337.91562 736.0957 336.65Q736.0957 335.38437 736.6113 334.30624Q737.1426 333.2125 738.12695 332.69687Q739.1113 332.16562 740.3926 332.16562Q741.3301 332.16562 742.0801 332.4625Q742.8301 332.75937 743.25195 333.30624Q743.68945 333.8375 743.9082 334.7125L742.8926 334.99374Q742.68945 334.3375 742.3926 333.9625Q742.1113 333.5875 741.5801 333.36874Q741.0488 333.13437 740.4082 333.13437Q739.62695 333.13437 739.0488 333.36874Q738.4863 333.60312 738.12695 333.99374Q737.7832 334.38437 737.5957 334.85312Q737.2676 335.65 737.2676 336.57187Q737.2676 337.72812 737.6582 338.50937Q738.06445 339.275 738.81445 339.65Q739.56445 340.025 740.4238 340.025Q741.1582 340.025 741.8613 339.74374Q742.56445 339.44687 742.9238 339.13437L742.9238 337.525L740.4082 337.525ZM748.9238 340.9L747.87695 340.9L747.87695 334.18124Q747.4863 334.54062 746.8613 334.91562Q746.25195 335.275 745.7676 335.44687L745.7676 334.43124Q746.6426 334.00937 747.2988 333.43124Q747.9707 332.8375 748.25195 332.275L748.9238 332.275L748.9238 340.9Z" fill-rule="nonzero"/><path fill="#000000" d="M783.4059 340.9L782.359 340.9L782.359 334.18124Q781.9684 334.54062 781.3434 334.91562Q780.734 335.275 780.24963 335.44687L780.24963 334.43124Q781.12463 334.00937 781.7809 333.43124Q782.45276 332.8375 782.734 332.275L783.4059 332.275L783.4059 340.9ZM791.984 339.88437L791.984 340.9L786.2965 340.9Q786.2965 340.525 786.4215 340.16562Q786.64026 339.5875 787.109 339.025Q787.5934 338.4625 788.49963 337.72812Q789.9059 336.57187 790.39026 335.9Q790.89026 335.22812 790.89026 334.63437Q790.89026 334.00937 790.43713 333.5875Q789.984 333.15 789.26526 333.15Q788.49963 333.15 788.0465 333.60312Q787.5934 334.05624 787.57776 334.86874L786.49963 334.75937Q786.609 333.54062 787.32776 332.91562Q788.06213 332.275 789.2965 332.275Q790.5309 332.275 791.24963 332.9625Q791.9684 333.65 791.9684 334.66562Q791.9684 335.18124 791.74963 335.68124Q791.5465 336.16562 791.0465 336.72812Q790.56213 337.275 789.43713 338.22812Q788.484 339.025 788.20276 339.32187Q787.93713 339.60312 787.76526 339.88437L791.984 339.88437ZM797.89026 337.525L797.89026 336.525L801.51526 336.50937L801.51526 339.69687Q800.68713 340.36874 799.7965 340.7125Q798.9059 341.04062 797.9684 341.04062Q796.70276 341.04062 795.6559 340.50937Q794.62463 339.9625 794.0934 338.94687Q793.57776 337.91562 793.57776 336.65Q793.57776 335.38437 794.0934 334.30624Q794.62463 333.2125 795.609 332.69687Q796.5934 332.16562 797.87463 332.16562Q798.81213 332.16562 799.56213 332.4625Q800.31213 332.75937 800.734 333.30624Q801.1715 333.8375 801.39026 334.7125L800.37463 334.99374Q800.1715 334.3375 799.87463 333.9625Q799.5934 333.5875 799.06213 333.36874Q798.5309 333.13437 797.89026 333.13437Q797.109 333.13437 796.5309 333.36874Q795.9684 333.60312 795.609 333.99374Q795.26526 334.38437 795.07776 334.85312Q794.74963 335.65 794.74963 336.57187Q794.74963 337.72812 795.14026 338.50937Q795.5465 339.275 796.2965 339.65Q797.0465 340.025 797.9059 340.025Q798.64026 340.025 799.3434 339.74374Q800.0465 339.44687 800.4059 339.13437L800.4059 337.525L797.89026 337.525ZM805.484 338.13437L806.5465 338.04062Q806.62463 338.69687 806.9059 339.10312Q807.18713 339.50937 807.76526 339.775Q808.359 340.025 809.0934 340.025Q809.734 340.025 810.234 339.8375Q810.734 339.63437 810.9684 339.30624Q811.2184 338.9625 811.2184 338.57187Q811.2184 338.16562 810.984 337.86874Q810.74963 337.55624 810.2184 337.35312Q809.859 337.2125 808.6715 336.93124Q807.49963 336.65 807.0309 336.4Q806.4059 336.07187 806.109 335.60312Q805.81213 335.11874 805.81213 334.525Q805.81213 333.88437 806.1715 333.32187Q806.5465 332.74374 807.24963 332.4625Q807.9684 332.16562 808.82776 332.16562Q809.7809 332.16562 810.51526 332.47812Q811.24963 332.775 811.64026 333.38437Q812.0309 333.97812 812.06213 334.72812L810.9684 334.80624Q810.87463 333.99374 810.359 333.5875Q809.859 333.16562 808.87463 333.16562Q807.8434 333.16562 807.37463 333.54062Q806.9059 333.91562 806.9059 334.44687Q806.9059 334.91562 807.234 335.2125Q807.56213 335.50937 808.93713 335.82187Q810.32776 336.13437 810.8434 336.36874Q811.5934 336.72812 811.95276 337.25937Q812.31213 337.775 812.31213 338.47812Q812.31213 339.16562 811.9215 339.775Q811.5309 340.36874 810.7965 340.7125Q810.06213 341.04062 809.14026 341.04062Q807.9684 341.04062 807.1715 340.7125Q806.39026 340.36874 805.93713 339.68124Q805.49963 338.99374 805.484 338.13437ZM813.734 340.9L813.734 332.30624L814.7809 332.30624L814.7809 335.38437Q815.51526 334.54062 816.64026 334.54062Q817.3434 334.54062 817.8434 334.82187Q818.359 335.0875 818.57776 335.57187Q818.7965 336.04062 818.7965 336.9625L818.7965 340.9L817.74963 340.9L817.74963 336.9625Q817.74963 336.16562 817.4059 335.80624Q817.06213 335.44687 816.43713 335.44687Q815.9684 335.44687 815.5465 335.69687Q815.14026 335.93124 814.95276 336.35312Q814.7809 336.75937 814.7809 337.49374L814.7809 340.9L813.734 340.9ZM824.984 338.9L826.07776 339.025Q825.82776 339.97812 825.12463 340.50937Q824.4215 341.04062 823.3434 341.04062Q821.984 341.04062 821.1715 340.19687Q820.37463 339.35312 820.37463 337.8375Q820.37463 336.275 821.18713 335.41562Q821.99963 334.54062 823.2809 334.54062Q824.5309 334.54062 825.31213 335.38437Q826.109 336.22812 826.109 337.775Q826.109 337.86874 826.109 338.05624L821.4684 338.05624Q821.5309 339.0875 822.0465 339.63437Q822.56213 340.16562 823.3434 340.16562Q823.9215 340.16562 824.32776 339.86874Q824.74963 339.55624 824.984 338.9ZM821.5309 337.19687L824.99963 337.19687Q824.93713 336.4 824.609 336.00937Q824.0934 335.4 823.2965 335.4Q822.56213 335.4 822.06213 335.88437Q821.57776 336.36874 821.5309 337.19687ZM827.734 340.9L827.734 334.68124L828.6715 334.68124L828.6715 335.55624Q829.359 334.54062 830.6559 334.54062Q831.2184 334.54062 831.68713 334.74374Q832.1715 334.94687 832.4059 335.275Q832.64026 335.60312 832.734 336.04062Q832.7809 336.3375 832.7809 337.07187L832.7809 340.9L831.734 340.9L831.734 337.11874Q831.734 336.4625 831.609 336.15Q831.484 335.8375 831.1715 335.65Q830.859 335.44687 830.43713 335.44687Q829.76526 335.44687 829.26526 335.88437Q828.7809 336.30624 828.7809 337.49374L828.7809 340.9L827.734 340.9ZM838.7965 340.13437Q838.20276 340.63437 837.6559 340.8375Q837.12463 341.04062 836.49963 341.04062Q835.4684 341.04062 834.9215 340.54062Q834.37463 340.04062 834.37463 339.25937Q834.37463 338.80624 834.57776 338.43124Q834.7809 338.04062 835.12463 337.82187Q835.4684 337.5875 835.89026 337.47812Q836.18713 337.38437 836.82776 337.30624Q838.0934 337.16562 838.70276 336.94687Q838.70276 336.72812 838.70276 336.68124Q838.70276 336.025 838.4059 335.75937Q837.99963 335.41562 837.20276 335.41562Q836.4684 335.41562 836.109 335.68124Q835.74963 335.93124 835.57776 336.5875L834.5465 336.44687Q834.68713 335.79062 835.01526 335.38437Q835.3434 334.97812 835.95276 334.75937Q836.56213 334.54062 837.359 334.54062Q838.1559 334.54062 838.6559 334.72812Q839.1559 334.91562 839.39026 335.19687Q839.62463 335.47812 839.7184 335.91562Q839.76526 336.18124 839.76526 336.88437L839.76526 338.29062Q839.76526 339.75937 839.82776 340.15Q839.9059 340.54062 840.109 340.9L838.99963 340.9Q838.8434 340.57187 838.7965 340.13437ZM838.70276 337.775Q838.12463 338.00937 836.984 338.18124Q836.32776 338.275 836.06213 338.4Q835.7965 338.50937 835.64026 338.72812Q835.49963 338.94687 835.49963 339.22812Q835.49963 339.65 835.81213 339.93124Q836.14026 340.2125 836.74963 340.2125Q837.359 340.2125 837.82776 339.94687Q838.31213 339.68124 838.5309 339.2125Q838.70276 338.85312 838.70276 338.16562L838.70276 337.775ZM841.734 340.9L841.734 334.68124L842.6715 334.68124L842.6715 335.55624Q843.359 334.54062 844.6559 334.54062Q845.2184 334.54062 845.68713 334.74374Q846.1715 334.94687 846.4059 335.275Q846.64026 335.60312 846.734 336.04062Q846.7809 336.3375 846.7809 337.07187L846.7809 340.9L845.734 340.9L845.734 337.11874Q845.734 336.4625 845.609 336.15Q845.484 335.8375 845.1715 335.65Q844.859 335.44687 844.43713 335.44687Q843.76526 335.44687 843.26526 335.88437Q842.7809 336.30624 842.7809 337.49374L842.7809 340.9L841.734 340.9ZM852.76526 340.9L852.76526 340.11874Q852.1715 341.04062 851.0309 341.04062Q850.2809 341.04062 849.6559 340.63437Q849.0309 340.2125 848.68713 339.47812Q848.3434 338.74374 848.3434 337.79062Q848.3434 336.86874 848.6559 336.10312Q848.9684 335.3375 849.5934 334.94687Q850.2184 334.54062 850.984 334.54062Q851.5465 334.54062 851.984 334.775Q852.4215 335.00937 852.70276 335.38437L852.70276 332.30624L853.74963 332.30624L853.74963 340.9L852.76526 340.9ZM849.43713 337.79062Q849.43713 338.99374 849.93713 339.5875Q850.43713 340.16562 851.12463 340.16562Q851.81213 340.16562 852.2965 339.60312Q852.7809 339.04062 852.7809 337.88437Q852.7809 336.60312 852.2809 336.00937Q851.7965 335.41562 851.07776 335.41562Q850.37463 335.41562 849.9059 335.99374Q849.43713 336.55624 849.43713 337.79062ZM855.3434 337.79062Q855.3434 336.05624 856.2965 335.22812Q857.0934 334.54062 858.24963 334.54062Q859.5309 334.54062 860.3434 335.38437Q861.1715 336.2125 861.1715 337.69687Q861.1715 338.9 860.81213 339.5875Q860.45276 340.275 859.74963 340.66562Q859.06213 341.04062 858.24963 341.04062Q856.95276 341.04062 856.14026 340.2125Q855.3434 339.36874 855.3434 337.79062ZM856.4215 337.79062Q856.4215 338.97812 856.93713 339.57187Q857.4684 340.16562 858.24963 340.16562Q859.0465 340.16562 859.56213 339.57187Q860.07776 338.97812 860.07776 337.75937Q860.07776 336.60312 859.5465 336.00937Q859.0309 335.41562 858.24963 335.41562Q857.4684 335.41562 856.93713 336.00937Q856.4215 336.5875 856.4215 337.79062ZM866.7965 340.13437Q866.20276 340.63437 865.6559 340.8375Q865.12463 341.04062 864.49963 341.04062Q863.4684 341.04062 862.9215 340.54062Q862.37463 340.04062 862.37463 339.25937Q862.37463 338.80624 862.57776 338.43124Q862.7809 338.04062 863.12463 337.82187Q863.4684 337.5875 863.89026 337.47812Q864.18713 337.38437 864.82776 337.30624Q866.0934 337.16562 866.70276 336.94687Q866.70276 336.72812 866.70276 336.68124Q866.70276 336.025 866.4059 335.75937Q865.99963 335.41562 865.20276 335.41562Q864.4684 335.41562 864.109 335.68124Q863.74963 335.93124 863.57776 336.5875L862.5465 336.44687Q862.68713 335.79062 863.01526 335.38437Q863.3434 334.97812 863.95276 334.75937Q864.56213 334.54062 865.359 334.54062Q866.1559 334.54062 866.6559 334.72812Q867.1559 334.91562 867.39026 335.19687Q867.62463 335.47812 867.7184 335.91562Q867.76526 336.18124 867.76526 336.88437L867.76526 338.29062Q867.76526 339.75937 867.82776 340.15Q867.9059 340.54062 868.109 340.9L866.99963 340.9Q866.8434 340.57187 866.7965 340.13437ZM866.70276 337.775Q866.12463 338.00937 864.984 338.18124Q864.32776 338.275 864.06213 338.4Q863.7965 338.50937 863.64026 338.72812Q863.49963 338.94687 863.49963 339.22812Q863.49963 339.65 863.81213 339.93124Q864.14026 340.2125 864.74963 340.2125Q865.359 340.2125 865.82776 339.94687Q866.31213 339.68124 866.5309 339.2125Q866.70276 338.85312 866.70276 338.16562L866.70276 337.775ZM869.734 340.9L869.734 332.30624L870.7809 332.30624L870.7809 335.38437Q871.51526 334.54062 872.64026 334.54062Q873.3434 334.54062 873.8434 334.82187Q874.359 335.0875 874.57776 335.57187Q874.7965 336.04062 874.7965 336.9625L874.7965 340.9L873.74963 340.9L873.74963 336.9625Q873.74963 336.16562 873.4059 335.80624Q873.06213 335.44687 872.43713 335.44687Q871.9684 335.44687 871.5465 335.69687Q871.14026 335.93124 870.95276 336.35312Q870.7809 336.75937 870.7809 337.49374L870.7809 340.9L869.734 340.9Z" fill-rule="nonzero"/><path fill="#757575" d="M19.56875 37.1L19.56875 22.787498L24.94375 22.787498Q26.584375 22.787498 27.56875 23.224998Q28.553125 23.646873 29.115625 24.553123Q29.678125 25.459373 29.678125 26.443748Q29.678125 27.365623 29.178125 28.178123Q28.69375 28.990623 27.678125 29.474998Q28.975 29.865623 29.678125 30.787498Q30.38125 31.693748 30.38125 32.94375Q30.38125 33.959373 29.94375 34.81875Q29.521875 35.678123 28.896875 36.146873Q28.271875 36.615623 27.334375 36.865623Q26.396875 37.1 25.021875 37.1L19.56875 37.1ZM21.459375 28.803123L24.553125 28.803123Q25.81875 28.803123 26.365625 28.631248Q27.084375 28.412498 27.44375 27.928123Q27.81875 27.428123 27.81875 26.662498Q27.81875 25.959373 27.475 25.412498Q27.13125 24.865623 26.490625 24.678123Q25.865625 24.474998 24.31875 24.474998L21.459375 24.474998L21.459375 28.803123ZM21.459375 35.4125L25.021875 35.4125Q25.94375 35.4125 26.31875 35.334373Q26.975 35.225 27.4125 34.959373Q27.85 34.678123 28.13125 34.1625Q28.4125 33.63125 28.4125 32.94375Q28.4125 32.146873 28.00625 31.553123Q27.6 30.959373 26.865625 30.724998Q26.13125 30.490623 24.771875 30.490623L21.459375 30.490623L21.459375 35.4125ZM32.4125 41.06875L32.4125 26.724998L34.021873 26.724998L34.021873 28.068748Q34.584373 27.287498 35.2875 26.896873Q36.00625 26.490623 37.021873 26.490623Q38.35 26.490623 39.365623 27.178123Q40.38125 27.865623 40.896873 29.115623Q41.428123 30.349998 41.428123 31.834373Q41.428123 33.428123 40.85 34.709373Q40.2875 35.975 39.19375 36.6625Q38.1 37.334373 36.896873 37.334373Q36.021873 37.334373 35.31875 36.959373Q34.63125 36.584373 34.178123 36.021873L34.178123 41.06875L32.4125 41.06875ZM34.00625 31.974998Q34.00625 33.975 34.81875 34.928123Q35.63125 35.88125 36.7875 35.88125Q37.959373 35.88125 38.7875 34.896873Q39.63125 33.9125 39.63125 31.818748Q39.63125 29.849998 38.803123 28.865623Q37.990623 27.865623 36.865623 27.865623Q35.740623 27.865623 34.865623 28.928123Q34.00625 29.974998 34.00625 31.974998ZM50.521873 33.75625L52.334373 33.990623Q51.9125 35.56875 50.740623 36.459373Q49.584373 37.334373 47.771873 37.334373Q45.50625 37.334373 44.1625 35.94375Q42.834373 34.5375 42.834373 32.00625Q42.834373 29.381248 44.178123 27.943748Q45.521873 26.490623 47.678123 26.490623Q49.75625 26.490623 51.06875 27.912498Q52.396873 29.318748 52.396873 31.896873Q52.396873 32.053123 52.38125 32.365623L44.646873 32.365623Q44.740623 34.06875 45.615623 34.975Q46.490623 35.88125 47.7875 35.88125Q48.75625 35.88125 49.428123 35.38125Q50.115623 34.865623 50.521873 33.75625ZM44.740623 30.912498L50.5375 30.912498Q50.428123 29.615623 49.88125 28.959373Q49.0375 27.943748 47.69375 27.943748Q46.490623 27.943748 45.6625 28.756248Q44.834373 29.553123 44.740623 30.912498ZM54.475 26.724998L57.209373 26.724998L59.928123 35.021873L62.959373 26.724998L65.49062 26.724998L65.49062 37.1L63.725 37.1L63.725 28.756248L60.6625 37.1L59.084373 37.1L56.19375 28.349998L56.19375 37.1L54.475 37.1L54.475 26.724998ZM76.58437 26.724998L76.58437 37.1L74.83437 37.1L74.83437 33.053123L73.81875 33.053123Q72.89687 33.053123 72.44375 33.303123Q71.99062 33.5375 71.11562 34.834373L69.58437 37.1L67.39687 37.1L69.30312 34.303123Q70.1625 33.021873 71.02187 32.865623Q69.52187 32.6625 68.7875 31.787498Q68.06875 30.896873 68.06875 29.756248Q68.06875 28.412498 69.02187 27.568748Q69.975 26.724998 71.77187 26.724998L76.58437 26.724998ZM74.83437 28.178123L72.33437 28.178123Q70.75625 28.178123 70.30312 28.678123Q69.85 29.162498 69.85 29.818748Q69.85 30.740623 70.52187 31.178123Q71.19375 31.615623 72.89687 31.615623L74.83437 31.615623L74.83437 28.178123ZM84.77187 31.912498Q84.77187 29.037498 86.36562 27.646873Q87.70937 26.490623 89.63125 26.490623Q91.77187 26.490623 93.11562 27.896873Q94.475 29.303123 94.475 31.771873Q94.475 33.771873 93.88125 34.928123Q93.2875 36.06875 92.13125 36.709373Q90.99062 37.334373 89.63125 37.334373Q87.44375 37.334373 86.1 35.94375Q84.77187 34.5375 84.77187 31.912498ZM86.56875 31.912498Q86.56875 33.9125 87.42812 34.896873Q88.30312 35.88125 89.63125 35.88125Q90.94375 35.88125 91.80312 34.896873Q92.67812 33.896873 92.67812 31.849998Q92.67812 29.928123 91.80312 28.943748Q90.92812 27.943748 89.63125 27.943748Q88.30312 27.943748 87.42812 28.943748Q86.56875 29.928123 86.56875 31.912498ZM97.80312 26.724998L105.0375 26.724998L105.0375 35.646873L106.1625 35.646873L106.1625 40.0375L104.70937 40.0375L104.70937 37.1L96.55312 37.1L96.55312 40.0375L95.1 40.0375L95.1 35.646873L96.02187 35.646873Q97.88125 33.13125 97.80312 26.724998ZM99.27187 28.178123Q99.06875 33.225 97.70937 35.646873L103.2875 35.646873L103.2875 28.178123L99.27187 28.178123ZM108.42812 26.724998L110.19375 26.724998L110.19375 31.037498L115.05312 31.037498L115.05312 26.724998L116.81875 26.724998L116.81875 37.1L115.05312 37.1L115.05312 32.50625L110.19375 32.50625L110.19375 37.1L108.42812 37.1L108.42812 26.724998ZM118.77187 31.912498Q118.77187 29.037498 120.36562 27.646873Q121.70937 26.490623 123.63125 26.490623Q125.77187 26.490623 127.11562 27.896873Q128.475 29.303123 128.475 31.771873Q128.475 33.771873 127.88125 34.928123Q127.2875 36.06875 126.13125 36.709373Q124.99062 37.334373 123.63125 37.334373Q121.44375 37.334373 120.1 35.94375Q118.77187 34.5375 118.77187 31.912498ZM120.56875 31.912498Q120.56875 33.9125 121.42812 34.896873Q122.30312 35.88125 123.63125 35.88125Q124.94375 35.88125 125.80312 34.896873Q126.67812 33.896873 126.67812 31.849998Q126.67812 29.928123 125.80312 28.943748Q124.92812 27.943748 123.63125 27.943748Q122.30312 27.943748 121.42812 28.943748Q120.56875 29.928123 120.56875 31.912498ZM130.4125 26.724998L132.17813 26.724998L132.17813 34.63125L137.05313 26.724998L138.94376 26.724998L138.94376 37.1L137.19376 37.1L137.19376 29.240623L132.31876 37.1L130.4125 37.1L130.4125 26.724998ZM136.11563 22.803123L137.31876 22.803123Q137.17813 24.021873 136.42813 24.678123Q135.67813 25.334373 134.44376 25.334373Q133.19376 25.334373 132.44376 24.693748Q131.69376 24.037498 131.55313 22.803123L132.75626 22.803123Q132.88126 23.459373 133.2875 23.787498Q133.69376 24.115623 134.38126 24.115623Q135.17813 24.115623 135.58438 23.803123Q135.99063 23.490623 136.11563 22.803123ZM154.19376 33.303123L155.9125 33.521873Q155.63126 35.31875 154.45938 36.334373Q153.30313 37.334373 151.6 37.334373Q149.475 37.334373 148.17813 35.94375Q146.88126 34.553123 146.88126 31.959373Q146.88126 30.271873 147.42813 29.021873Q147.99063 27.756248 149.13126 27.131248Q150.27188 26.490623 151.61563 26.490623Q153.30313 26.490623 154.36563 27.349998Q155.44376 28.209373 155.75626 29.771873L154.0375 30.037498Q153.80313 28.990623 153.17813 28.474998Q152.55313 27.943748 151.67813 27.943748Q150.35 27.943748 149.52188 28.896873Q148.69376 29.849998 148.69376 31.896873Q148.69376 33.990623 149.49063 34.94375Q150.2875 35.88125 151.58438 35.88125Q152.61563 35.88125 153.30313 35.25625Q154.00626 34.615623 154.19376 33.303123ZM165.02188 22.443748L166.56876 22.459373Q166.45938 23.506248 166.1 23.912498Q165.75626 24.318748 165.19376 24.443748Q164.63126 24.553123 162.99063 24.553123Q160.80313 24.553123 160.00626 24.974998Q159.225 25.396873 158.88126 26.318748Q158.5375 27.240623 158.49063 28.693748Q159.1625 27.709373 160.0375 27.224998Q160.92813 26.724998 162.05313 26.724998Q164.08438 26.724998 165.42813 28.131248Q166.77188 29.537498 166.77188 31.928123Q166.77188 33.740623 166.08438 34.9125Q165.4125 36.06875 164.49063 36.709373Q163.56876 37.334373 161.975 37.334373Q160.13126 37.334373 159.1 36.490623Q158.08438 35.646873 157.5375 34.334373Q156.99063 33.00625 156.99063 29.740623Q156.99063 25.631248 158.38126 24.209373Q159.77188 22.771873 162.6625 22.771873Q164.45938 22.771873 164.69376 22.724998Q164.94376 22.662498 165.02188 22.443748ZM164.92813 31.881248Q164.92813 30.256248 164.1625 29.224998Q163.39688 28.178123 162.00626 28.178123Q160.5375 28.178123 159.74063 29.271873Q158.95938 30.365623 158.95938 32.19375Q158.95938 34.00625 159.83438 34.959373Q160.70938 35.9125 161.99063 35.9125Q163.30313 35.9125 164.11563 34.803123Q164.92813 33.69375 164.92813 31.881248ZM167.77188 31.912498Q167.77188 29.037498 169.36563 27.646873Q170.70938 26.490623 172.63126 26.490623Q174.77188 26.490623 176.11563 27.896873Q177.475 29.303123 177.475 31.771873Q177.475 33.771873 176.88126 34.928123Q176.2875 36.06875 175.13126 36.709373Q173.99063 37.334373 172.63126 37.334373Q170.44376 37.334373 169.1 35.94375Q167.77188 34.5375 167.77188 31.912498ZM169.56876 31.912498Q169.56876 33.9125 170.42813 34.896873Q171.30313 35.88125 172.63126 35.88125Q173.94376 35.88125 174.80313 34.896873Q175.67813 33.896873 175.67813 31.849998Q175.67813 29.928123 174.80313 28.943748Q173.92813 27.943748 172.63126 27.943748Q171.30313 27.943748 170.42813 28.943748Q169.56876 29.928123 169.56876 31.912498ZM179.4125 41.06875L179.4125 26.724998L181.02188 26.724998L181.02188 28.068748Q181.58438 27.287498 182.2875 26.896873Q183.00626 26.490623 184.02188 26.490623Q185.35 26.490623 186.36563 27.178123Q187.38126 27.865623 187.89688 29.115623Q188.42813 30.349998 188.42813 31.834373Q188.42813 33.428123 187.85 34.709373Q187.2875 35.975 186.19376 36.6625Q185.1 37.334373 183.89688 37.334373Q183.02188 37.334373 182.31876 36.959373Q181.63126 36.584373 181.17813 36.021873L181.17813 41.06875L179.4125 41.06875ZM181.00626 31.974998Q181.00626 33.975 181.81876 34.928123Q182.63126 35.88125 183.7875 35.88125Q184.95938 35.88125 185.7875 34.896873Q186.63126 33.9125 186.63126 31.818748Q186.63126 29.849998 185.80313 28.865623Q184.99063 27.865623 183.86563 27.865623Q182.74063 27.865623 181.86563 28.928123Q181.00626 29.974998 181.00626 31.974998ZM190.4125 26.724998L192.1625 26.724998L192.1625 31.209373Q193.00626 31.209373 193.33438 30.896873Q193.67813 30.568748 194.33438 29.006248Q194.85 27.787498 195.1625 27.396873Q195.49063 27.006248 195.9125 26.865623Q196.33438 26.724998 197.27188 26.724998L197.61563 26.724998L197.61563 28.178123L197.13126 28.178123Q196.42813 28.178123 196.24063 28.381248Q196.0375 28.599998 195.61563 29.662498Q195.20938 30.678123 194.88126 31.068748Q194.55313 31.459373 193.85 31.771873Q194.99063 32.084373 196.08438 33.88125L198.00626 37.1L196.06876 37.1L194.19376 33.88125Q193.61563 32.9125 193.17813 32.615623Q192.75626 32.303123 192.1625 32.303123L192.1625 37.1L190.4125 37.1L190.4125 26.724998ZM199.4125 26.724998L201.17813 26.724998L201.17813 34.63125L206.05313 26.724998L207.94376 26.724998L207.94376 37.1L206.19376 37.1L206.19376 29.240623L201.31876 37.1L199.4125 37.1L199.4125 26.724998Z" fill-rule="nonzero"/></svg>